<mxfile host="app.diagrams.net" agent="Mozilla/5.0 (Windows NT 10.0; Win64; x64) AppleWebKit/537.36 (KHTML, like Gecko) Chrome/129.0.0.0 Safari/537.36" version="24.7.17">
  <diagram name="Pagina-1" id="FfZyJJISelnO_vb4mKer">
    <mxGraphModel dx="2555" dy="915" grid="1" gridSize="10" guides="1" tooltips="1" connect="1" arrows="1" fold="1" page="1" pageScale="1" pageWidth="827" pageHeight="1169" math="0" shadow="0">
      <root>
        <mxCell id="0" />
        <mxCell id="1" parent="0" />
        <mxCell id="Db0PShTD42zC8VwYMhMY-171" value="" style="rounded=0;whiteSpace=wrap;html=1;align=center;verticalAlign=middle;fontFamily=Helvetica;fontSize=12;fontColor=#005073;fillColor=none;gradientColor=none;strokeColor=#00bbea;dashed=1;dashPattern=1 2;" parent="1" vertex="1">
          <mxGeometry x="240" y="20" width="540" height="170" as="geometry" />
        </mxCell>
        <mxCell id="Db0PShTD42zC8VwYMhMY-184" value="" style="rounded=0;whiteSpace=wrap;html=1;align=center;verticalAlign=middle;fontFamily=Helvetica;fontSize=12;fontColor=#005073;fillColor=none;gradientColor=none;strokeColor=#00bbea;dashed=1;dashPattern=1 2;" parent="1" vertex="1">
          <mxGeometry x="289.5" y="954" width="490" height="170" as="geometry" />
        </mxCell>
        <mxCell id="Db0PShTD42zC8VwYMhMY-182" value="" style="rounded=0;whiteSpace=wrap;html=1;align=center;verticalAlign=middle;fontFamily=Helvetica;fontSize=12;fontColor=#005073;fillColor=none;gradientColor=none;strokeColor=#00bbea;dashed=1;dashPattern=1 2;" parent="1" vertex="1">
          <mxGeometry x="290" y="767.5" width="490" height="170" as="geometry" />
        </mxCell>
        <mxCell id="Db0PShTD42zC8VwYMhMY-180" value="" style="rounded=0;whiteSpace=wrap;html=1;align=center;verticalAlign=middle;fontFamily=Helvetica;fontSize=12;fontColor=#005073;fillColor=none;gradientColor=none;strokeColor=#00bbea;dashed=1;dashPattern=1 2;" parent="1" vertex="1">
          <mxGeometry x="290" y="576.5" width="490" height="170" as="geometry" />
        </mxCell>
        <mxCell id="Db0PShTD42zC8VwYMhMY-178" value="" style="rounded=0;whiteSpace=wrap;html=1;align=center;verticalAlign=middle;fontFamily=Helvetica;fontSize=12;fontColor=#005073;fillColor=none;gradientColor=none;strokeColor=#00bbea;dashed=1;dashPattern=1 2;" parent="1" vertex="1">
          <mxGeometry x="290" y="389" width="490" height="170" as="geometry" />
        </mxCell>
        <mxCell id="Db0PShTD42zC8VwYMhMY-173" value="" style="rounded=0;whiteSpace=wrap;html=1;align=center;verticalAlign=middle;fontFamily=Helvetica;fontSize=12;fontColor=#005073;fillColor=none;gradientColor=none;strokeColor=#00bbea;dashed=1;dashPattern=1 2;" parent="1" vertex="1">
          <mxGeometry x="290" y="202" width="490" height="170" as="geometry" />
        </mxCell>
        <mxCell id="Db0PShTD42zC8VwYMhMY-1" value="" style="sketch=0;points=[[0,0.2,0,0,0],[0,0.4,0,0,0],[0,0.6,0,0,0],[0,0.8,0,0,0],[0.015,0.015,0,0,0],[0.015,0.985,0,0,0],[0.2,0,0,0,0],[0.2,1,0,0,0],[0.4,0,0,0,0],[0.4,1,0,0,0],[0.6,0,0,0,0],[0.6,1,0,0,0],[0.8,0,0,0,0],[0.8,1,0,0,0],[0.985,0.015,0,0,0],[0.985,0.985,0,0,0],[1,0.2,0,0,0],[1,0.4,0,0,0],[1,0.6,0,0,0],[1,0.8,0,0,0]];verticalLabelPosition=bottom;html=1;verticalAlign=top;aspect=fixed;align=center;pointerEvents=1;shape=mxgraph.cisco19.rect;prIcon=l2_switch;fillColor=#FAFAFA;strokeColor=#005073;" parent="1" vertex="1">
          <mxGeometry x="300" y="103" width="80" height="80" as="geometry" />
        </mxCell>
        <mxCell id="Db0PShTD42zC8VwYMhMY-2" value="&lt;span style=&quot;font-size: 11px;&quot;&gt;&lt;b&gt;S_AN_SPD_1&lt;/b&gt;&lt;/span&gt;" style="text;html=1;align=center;verticalAlign=middle;whiteSpace=wrap;rounded=0;fontColor=#005073;" parent="1" vertex="1">
          <mxGeometry x="309" y="80" width="60" height="30" as="geometry" />
        </mxCell>
        <mxCell id="Db0PShTD42zC8VwYMhMY-15" value="" style="points=[[0.22,0.185,0],[0.5,0,0],[0.78,0.185,0],[0.975,0.49,0],[1,0.73,0],[0.975,0.97,0],[0.5,1,0],[0.025,0.97,0],[0,0.73,0],[0.025,0.49,0]];verticalLabelPosition=bottom;sketch=0;html=1;verticalAlign=top;aspect=fixed;align=center;pointerEvents=1;shape=mxgraph.cisco19.printer;fillColor=#005073;strokeColor=none;" parent="1" vertex="1">
          <mxGeometry x="420.5" y="50" width="50" height="45" as="geometry" />
        </mxCell>
        <mxCell id="Db0PShTD42zC8VwYMhMY-16" value="" style="points=[[0.015,0.015,0],[0.5,0,0],[0.985,0.015,0],[1,0.22,0],[0.985,0.43,0],[0.73,0.85,0],[0.5,1,0],[0.285,0.85,0],[0.015,0.43,0],[0,0.22,0]];verticalLabelPosition=bottom;sketch=0;html=1;verticalAlign=top;aspect=fixed;align=center;pointerEvents=1;shape=mxgraph.cisco19.surveillance_camera;fillColor=#005073;strokeColor=none;" parent="1" vertex="1">
          <mxGeometry x="556.5" y="52" width="54" height="42.19" as="geometry" />
        </mxCell>
        <mxCell id="Db0PShTD42zC8VwYMhMY-17" value="" style="points=[[0.59,0,0],[0.87,0.015,0],[0.88,0.3,0],[0.99,0.99,0],[0.5,1,0],[0.01,0.99,0],[0.075,0.5,0],[0.17,0.115,0]];verticalLabelPosition=bottom;sketch=0;html=1;verticalAlign=top;aspect=fixed;align=center;pointerEvents=1;shape=mxgraph.cisco19.ip_phone;fillColor=#005073;strokeColor=none;" parent="1" vertex="1">
          <mxGeometry x="484.5" y="45" width="57.49999999999999" height="50" as="geometry" />
        </mxCell>
        <mxCell id="Db0PShTD42zC8VwYMhMY-30" value="G1/0/3" style="text;html=1;align=center;verticalAlign=middle;whiteSpace=wrap;rounded=0;fontFamily=Helvetica;fontSize=12;fontColor=#005073;fontStyle=1" parent="1" vertex="1">
          <mxGeometry x="370.5" y="98" width="60" height="30" as="geometry" />
        </mxCell>
        <mxCell id="Db0PShTD42zC8VwYMhMY-33" style="edgeStyle=orthogonalEdgeStyle;shape=connector;rounded=0;orthogonalLoop=1;jettySize=auto;html=1;exitX=0.5;exitY=1;exitDx=0;exitDy=0;exitPerimeter=0;entryX=1;entryY=0.2;entryDx=0;entryDy=0;entryPerimeter=0;strokeColor=#005073;align=center;verticalAlign=middle;fontFamily=Helvetica;fontSize=12;fontColor=#005073;labelBackgroundColor=default;endArrow=none;endFill=0;" parent="1" source="Db0PShTD42zC8VwYMhMY-15" target="Db0PShTD42zC8VwYMhMY-1" edge="1">
          <mxGeometry relative="1" as="geometry" />
        </mxCell>
        <mxCell id="Db0PShTD42zC8VwYMhMY-34" style="edgeStyle=orthogonalEdgeStyle;shape=connector;rounded=0;orthogonalLoop=1;jettySize=auto;html=1;exitX=0.5;exitY=1;exitDx=0;exitDy=0;exitPerimeter=0;entryX=1;entryY=0.4;entryDx=0;entryDy=0;entryPerimeter=0;strokeColor=#005073;align=center;verticalAlign=middle;fontFamily=Helvetica;fontSize=12;fontColor=#005073;labelBackgroundColor=default;endArrow=none;endFill=0;" parent="1" source="Db0PShTD42zC8VwYMhMY-17" target="Db0PShTD42zC8VwYMhMY-1" edge="1">
          <mxGeometry relative="1" as="geometry" />
        </mxCell>
        <mxCell id="Db0PShTD42zC8VwYMhMY-35" style="edgeStyle=orthogonalEdgeStyle;shape=connector;rounded=0;orthogonalLoop=1;jettySize=auto;html=1;exitX=0.5;exitY=1;exitDx=0;exitDy=0;exitPerimeter=0;entryX=1;entryY=0.6;entryDx=0;entryDy=0;entryPerimeter=0;strokeColor=#005073;align=center;verticalAlign=middle;fontFamily=Helvetica;fontSize=12;fontColor=#005073;labelBackgroundColor=default;endArrow=none;endFill=0;" parent="1" source="Db0PShTD42zC8VwYMhMY-16" target="Db0PShTD42zC8VwYMhMY-1" edge="1">
          <mxGeometry relative="1" as="geometry" />
        </mxCell>
        <mxCell id="Db0PShTD42zC8VwYMhMY-36" value="G1/0/4-5" style="text;html=1;align=center;verticalAlign=middle;whiteSpace=wrap;rounded=0;fontFamily=Helvetica;fontSize=12;fontColor=#005073;fontStyle=1" parent="1" vertex="1">
          <mxGeometry x="375.5" y="114" width="60" height="30" as="geometry" />
        </mxCell>
        <mxCell id="Db0PShTD42zC8VwYMhMY-37" value="G1/0/6-9" style="text;html=1;align=center;verticalAlign=middle;whiteSpace=wrap;rounded=0;fontFamily=Helvetica;fontSize=12;fontColor=#005073;fontStyle=1" parent="1" vertex="1">
          <mxGeometry x="376" y="130" width="60" height="30" as="geometry" />
        </mxCell>
        <mxCell id="Db0PShTD42zC8VwYMhMY-38" value="&lt;div&gt;&lt;b style=&quot;&quot;&gt;&lt;font style=&quot;font-size: 12px;&quot;&gt;1x&lt;/font&gt;&lt;/b&gt;&lt;/div&gt;" style="text;html=1;align=center;verticalAlign=middle;whiteSpace=wrap;rounded=0;fontColor=#005073;" parent="1" vertex="1">
          <mxGeometry x="400" y="26" width="91" height="30" as="geometry" />
        </mxCell>
        <mxCell id="Db0PShTD42zC8VwYMhMY-40" value="&lt;div&gt;&lt;b style=&quot;&quot;&gt;&lt;font style=&quot;font-size: 12px;&quot;&gt;2x&lt;/font&gt;&lt;/b&gt;&lt;/div&gt;" style="text;html=1;align=center;verticalAlign=middle;whiteSpace=wrap;rounded=0;fontColor=#005073;" parent="1" vertex="1">
          <mxGeometry x="474.5" y="22" width="91" height="30" as="geometry" />
        </mxCell>
        <mxCell id="Db0PShTD42zC8VwYMhMY-41" value="&lt;div&gt;&lt;b style=&quot;&quot;&gt;&lt;font style=&quot;font-size: 12px;&quot;&gt;4x&lt;/font&gt;&lt;/b&gt;&lt;/div&gt;" style="text;html=1;align=center;verticalAlign=middle;whiteSpace=wrap;rounded=0;fontColor=#005073;" parent="1" vertex="1">
          <mxGeometry x="538" y="30" width="91" height="30" as="geometry" />
        </mxCell>
        <mxCell id="Db0PShTD42zC8VwYMhMY-42" value="" style="sketch=0;points=[[0,0.2,0,0,0],[0,0.4,0,0,0],[0,0.6,0,0,0],[0,0.8,0,0,0],[0.015,0.015,0,0,0],[0.015,0.985,0,0,0],[0.2,0,0,0,0],[0.2,1,0,0,0],[0.4,0,0,0,0],[0.4,1,0,0,0],[0.6,0,0,0,0],[0.6,1,0,0,0],[0.8,0,0,0,0],[0.8,1,0,0,0],[0.985,0.015,0,0,0],[0.985,0.985,0,0,0],[1,0.2,0,0,0],[1,0.4,0,0,0],[1,0.6,0,0,0],[1,0.8,0,0,0]];verticalLabelPosition=bottom;html=1;verticalAlign=top;aspect=fixed;align=center;pointerEvents=1;shape=mxgraph.cisco19.rect;prIcon=l2_switch;fillColor=#FAFAFA;strokeColor=#005073;" parent="1" vertex="1">
          <mxGeometry x="300" y="281" width="80" height="80" as="geometry" />
        </mxCell>
        <mxCell id="Db0PShTD42zC8VwYMhMY-43" value="&lt;span style=&quot;font-size: 11px;&quot;&gt;&lt;b&gt;S_AN_SPD_2&lt;/b&gt;&lt;/span&gt;" style="text;html=1;align=center;verticalAlign=middle;whiteSpace=wrap;rounded=0;fontColor=#005073;" parent="1" vertex="1">
          <mxGeometry x="309" y="258" width="60" height="30" as="geometry" />
        </mxCell>
        <mxCell id="Db0PShTD42zC8VwYMhMY-44" value="" style="points=[[0.22,0.185,0],[0.5,0,0],[0.78,0.185,0],[0.975,0.49,0],[1,0.73,0],[0.975,0.97,0],[0.5,1,0],[0.025,0.97,0],[0,0.73,0],[0.025,0.49,0]];verticalLabelPosition=bottom;sketch=0;html=1;verticalAlign=top;aspect=fixed;align=center;pointerEvents=1;shape=mxgraph.cisco19.printer;fillColor=#005073;strokeColor=none;" parent="1" vertex="1">
          <mxGeometry x="420.5" y="228" width="50" height="45" as="geometry" />
        </mxCell>
        <mxCell id="Db0PShTD42zC8VwYMhMY-46" value="" style="points=[[0.59,0,0],[0.87,0.015,0],[0.88,0.3,0],[0.99,0.99,0],[0.5,1,0],[0.01,0.99,0],[0.075,0.5,0],[0.17,0.115,0]];verticalLabelPosition=bottom;sketch=0;html=1;verticalAlign=top;aspect=fixed;align=center;pointerEvents=1;shape=mxgraph.cisco19.ip_phone;fillColor=#005073;strokeColor=none;" parent="1" vertex="1">
          <mxGeometry x="484.5" y="223" width="57.49999999999999" height="50" as="geometry" />
        </mxCell>
        <mxCell id="Db0PShTD42zC8VwYMhMY-47" value="G1/0/3-4" style="text;html=1;align=center;verticalAlign=middle;whiteSpace=wrap;rounded=0;fontFamily=Helvetica;fontSize=12;fontColor=#005073;fontStyle=1" parent="1" vertex="1">
          <mxGeometry x="375.5" y="276" width="60" height="30" as="geometry" />
        </mxCell>
        <mxCell id="Db0PShTD42zC8VwYMhMY-48" style="edgeStyle=orthogonalEdgeStyle;shape=connector;rounded=0;orthogonalLoop=1;jettySize=auto;html=1;exitX=0.5;exitY=1;exitDx=0;exitDy=0;exitPerimeter=0;entryX=1;entryY=0.2;entryDx=0;entryDy=0;entryPerimeter=0;strokeColor=#005073;align=center;verticalAlign=middle;fontFamily=Helvetica;fontSize=12;fontColor=#005073;labelBackgroundColor=default;endArrow=none;endFill=0;" parent="1" source="Db0PShTD42zC8VwYMhMY-44" target="Db0PShTD42zC8VwYMhMY-42" edge="1">
          <mxGeometry relative="1" as="geometry" />
        </mxCell>
        <mxCell id="Db0PShTD42zC8VwYMhMY-49" style="edgeStyle=orthogonalEdgeStyle;shape=connector;rounded=0;orthogonalLoop=1;jettySize=auto;html=1;exitX=0.5;exitY=1;exitDx=0;exitDy=0;exitPerimeter=0;entryX=1;entryY=0.4;entryDx=0;entryDy=0;entryPerimeter=0;strokeColor=#005073;align=center;verticalAlign=middle;fontFamily=Helvetica;fontSize=12;fontColor=#005073;labelBackgroundColor=default;endArrow=none;endFill=0;" parent="1" source="Db0PShTD42zC8VwYMhMY-46" target="Db0PShTD42zC8VwYMhMY-42" edge="1">
          <mxGeometry relative="1" as="geometry" />
        </mxCell>
        <mxCell id="Db0PShTD42zC8VwYMhMY-51" value="G1/0/5" style="text;html=1;align=center;verticalAlign=middle;whiteSpace=wrap;rounded=0;fontFamily=Helvetica;fontSize=12;fontColor=#005073;fontStyle=1" parent="1" vertex="1">
          <mxGeometry x="370.5" y="292" width="60" height="30" as="geometry" />
        </mxCell>
        <mxCell id="Db0PShTD42zC8VwYMhMY-52" value="G1/0/6-7" style="text;html=1;align=center;verticalAlign=middle;whiteSpace=wrap;rounded=0;fontFamily=Helvetica;fontSize=12;fontColor=#005073;fontStyle=1" parent="1" vertex="1">
          <mxGeometry x="376" y="308" width="60" height="30" as="geometry" />
        </mxCell>
        <mxCell id="Db0PShTD42zC8VwYMhMY-53" value="&lt;div&gt;&lt;b style=&quot;&quot;&gt;&lt;font style=&quot;font-size: 12px;&quot;&gt;2x&lt;/font&gt;&lt;/b&gt;&lt;/div&gt;" style="text;html=1;align=center;verticalAlign=middle;whiteSpace=wrap;rounded=0;fontColor=#005073;" parent="1" vertex="1">
          <mxGeometry x="400" y="204" width="91" height="30" as="geometry" />
        </mxCell>
        <mxCell id="Db0PShTD42zC8VwYMhMY-54" value="&lt;div&gt;&lt;b style=&quot;&quot;&gt;&lt;font style=&quot;font-size: 12px;&quot;&gt;1x&lt;/font&gt;&lt;/b&gt;&lt;/div&gt;" style="text;html=1;align=center;verticalAlign=middle;whiteSpace=wrap;rounded=0;fontColor=#005073;" parent="1" vertex="1">
          <mxGeometry x="474.5" y="200" width="91" height="30" as="geometry" />
        </mxCell>
        <mxCell id="Db0PShTD42zC8VwYMhMY-55" value="&lt;div&gt;&lt;b style=&quot;&quot;&gt;&lt;font style=&quot;font-size: 12px;&quot;&gt;8x&lt;/font&gt;&lt;/b&gt;&lt;/div&gt;" style="text;html=1;align=center;verticalAlign=middle;whiteSpace=wrap;rounded=0;fontColor=#005073;" parent="1" vertex="1">
          <mxGeometry x="615.5" y="210" width="91" height="30" as="geometry" />
        </mxCell>
        <mxCell id="Db0PShTD42zC8VwYMhMY-56" value="" style="points=[[0.03,0.36,0],[0.18,0,0],[0.5,0.34,0],[0.82,0,0],[0.97,0.36,0],[1,0.67,0],[0.975,0.975,0],[0.5,1,0],[0.025,0.975,0],[0,0.67,0]];verticalLabelPosition=bottom;sketch=0;html=1;verticalAlign=top;aspect=fixed;align=center;pointerEvents=1;shape=mxgraph.cisco19.wireless_access_point;fillColor=#005073;strokeColor=none;rounded=0;fontFamily=Helvetica;fontSize=12;fontColor=#005073;" parent="1" vertex="1">
          <mxGeometry x="629.5" y="40" width="50" height="50" as="geometry" />
        </mxCell>
        <mxCell id="Db0PShTD42zC8VwYMhMY-57" style="edgeStyle=orthogonalEdgeStyle;shape=connector;rounded=0;orthogonalLoop=1;jettySize=auto;html=1;exitX=0.5;exitY=1;exitDx=0;exitDy=0;exitPerimeter=0;entryX=1;entryY=0.8;entryDx=0;entryDy=0;entryPerimeter=0;strokeColor=#005073;align=center;verticalAlign=middle;fontFamily=Helvetica;fontSize=12;fontColor=#005073;labelBackgroundColor=default;endArrow=none;endFill=0;" parent="1" source="Db0PShTD42zC8VwYMhMY-56" target="Db0PShTD42zC8VwYMhMY-1" edge="1">
          <mxGeometry relative="1" as="geometry" />
        </mxCell>
        <mxCell id="Db0PShTD42zC8VwYMhMY-58" value="&lt;div&gt;&lt;b style=&quot;&quot;&gt;&lt;font style=&quot;font-size: 12px;&quot;&gt;1x&lt;/font&gt;&lt;/b&gt;&lt;/div&gt;" style="text;html=1;align=center;verticalAlign=middle;whiteSpace=wrap;rounded=0;fontColor=#005073;" parent="1" vertex="1">
          <mxGeometry x="609" y="18" width="91" height="30" as="geometry" />
        </mxCell>
        <mxCell id="Db0PShTD42zC8VwYMhMY-59" value="" style="points=[[0.03,0.03,0],[0.5,0,0],[0.97,0.03,0],[1,0.4,0],[0.97,0.745,0],[0.5,1,0],[0.03,0.745,0],[0,0.4,0]];verticalLabelPosition=bottom;sketch=0;html=1;verticalAlign=top;aspect=fixed;align=center;pointerEvents=1;shape=mxgraph.cisco19.workstation;fillColor=#005073;strokeColor=none;rounded=0;fontFamily=Helvetica;fontSize=12;fontColor=#005073;" parent="1" vertex="1">
          <mxGeometry x="636" y="233" width="50" height="40" as="geometry" />
        </mxCell>
        <mxCell id="Db0PShTD42zC8VwYMhMY-61" value="" style="points=[[0.03,0.36,0],[0.18,0,0],[0.5,0.34,0],[0.82,0,0],[0.97,0.36,0],[1,0.67,0],[0.975,0.975,0],[0.5,1,0],[0.025,0.975,0],[0,0.67,0]];verticalLabelPosition=bottom;sketch=0;html=1;verticalAlign=top;aspect=fixed;align=center;pointerEvents=1;shape=mxgraph.cisco19.wireless_access_point;fillColor=#005073;strokeColor=none;rounded=0;fontFamily=Helvetica;fontSize=12;fontColor=#005073;" parent="1" vertex="1">
          <mxGeometry x="706.5" y="220" width="50" height="50" as="geometry" />
        </mxCell>
        <mxCell id="Db0PShTD42zC8VwYMhMY-64" value="&lt;div&gt;&lt;b style=&quot;&quot;&gt;&lt;font style=&quot;font-size: 12px;&quot;&gt;2x&lt;/font&gt;&lt;/b&gt;&lt;/div&gt;" style="text;html=1;align=center;verticalAlign=middle;whiteSpace=wrap;rounded=0;fontColor=#005073;" parent="1" vertex="1">
          <mxGeometry x="685.5" y="198" width="91" height="30" as="geometry" />
        </mxCell>
        <mxCell id="Db0PShTD42zC8VwYMhMY-68" value="" style="sketch=0;points=[[0,0.2,0,0,0],[0,0.4,0,0,0],[0,0.6,0,0,0],[0,0.8,0,0,0],[0.015,0.015,0,0,0],[0.015,0.985,0,0,0],[0.2,0,0,0,0],[0.2,1,0,0,0],[0.4,0,0,0,0],[0.4,1,0,0,0],[0.6,0,0,0,0],[0.6,1,0,0,0],[0.8,0,0,0,0],[0.8,1,0,0,0],[0.985,0.015,0,0,0],[0.985,0.985,0,0,0],[1,0.2,0,0,0],[1,0.4,0,0,0],[1,0.6,0,0,0],[1,0.8,0,0,0]];verticalLabelPosition=bottom;html=1;verticalAlign=top;aspect=fixed;align=center;pointerEvents=1;shape=mxgraph.cisco19.rect;prIcon=l2_switch;fillColor=#FAFAFA;strokeColor=#005073;" parent="1" vertex="1">
          <mxGeometry x="300" y="468" width="80" height="80" as="geometry" />
        </mxCell>
        <mxCell id="Db0PShTD42zC8VwYMhMY-69" value="&lt;span style=&quot;font-size: 11px;&quot;&gt;&lt;b&gt;S_AN_CHIR_1&lt;/b&gt;&lt;/span&gt;" style="text;html=1;align=center;verticalAlign=middle;whiteSpace=wrap;rounded=0;fontColor=#005073;" parent="1" vertex="1">
          <mxGeometry x="309" y="445" width="60" height="30" as="geometry" />
        </mxCell>
        <mxCell id="Db0PShTD42zC8VwYMhMY-70" value="" style="points=[[0.22,0.185,0],[0.5,0,0],[0.78,0.185,0],[0.975,0.49,0],[1,0.73,0],[0.975,0.97,0],[0.5,1,0],[0.025,0.97,0],[0,0.73,0],[0.025,0.49,0]];verticalLabelPosition=bottom;sketch=0;html=1;verticalAlign=top;aspect=fixed;align=center;pointerEvents=1;shape=mxgraph.cisco19.printer;fillColor=#005073;strokeColor=none;" parent="1" vertex="1">
          <mxGeometry x="420.5" y="415" width="50" height="45" as="geometry" />
        </mxCell>
        <mxCell id="Db0PShTD42zC8VwYMhMY-71" value="" style="points=[[0.015,0.015,0],[0.5,0,0],[0.985,0.015,0],[1,0.22,0],[0.985,0.43,0],[0.73,0.85,0],[0.5,1,0],[0.285,0.85,0],[0.015,0.43,0],[0,0.22,0]];verticalLabelPosition=bottom;sketch=0;html=1;verticalAlign=top;aspect=fixed;align=center;pointerEvents=1;shape=mxgraph.cisco19.surveillance_camera;fillColor=#005073;strokeColor=none;" parent="1" vertex="1">
          <mxGeometry x="556.5" y="417" width="54" height="42.19" as="geometry" />
        </mxCell>
        <mxCell id="Db0PShTD42zC8VwYMhMY-72" value="" style="points=[[0.59,0,0],[0.87,0.015,0],[0.88,0.3,0],[0.99,0.99,0],[0.5,1,0],[0.01,0.99,0],[0.075,0.5,0],[0.17,0.115,0]];verticalLabelPosition=bottom;sketch=0;html=1;verticalAlign=top;aspect=fixed;align=center;pointerEvents=1;shape=mxgraph.cisco19.ip_phone;fillColor=#005073;strokeColor=none;" parent="1" vertex="1">
          <mxGeometry x="484.5" y="410" width="57.49999999999999" height="50" as="geometry" />
        </mxCell>
        <mxCell id="Db0PShTD42zC8VwYMhMY-73" value="G1/0/3" style="text;html=1;align=center;verticalAlign=middle;whiteSpace=wrap;rounded=0;fontFamily=Helvetica;fontSize=12;fontColor=#005073;fontStyle=1" parent="1" vertex="1">
          <mxGeometry x="370.5" y="463" width="60" height="30" as="geometry" />
        </mxCell>
        <mxCell id="Db0PShTD42zC8VwYMhMY-74" style="edgeStyle=orthogonalEdgeStyle;shape=connector;rounded=0;orthogonalLoop=1;jettySize=auto;html=1;exitX=0.5;exitY=1;exitDx=0;exitDy=0;exitPerimeter=0;entryX=1;entryY=0.2;entryDx=0;entryDy=0;entryPerimeter=0;strokeColor=#005073;align=center;verticalAlign=middle;fontFamily=Helvetica;fontSize=12;fontColor=#005073;labelBackgroundColor=default;endArrow=none;endFill=0;" parent="1" source="Db0PShTD42zC8VwYMhMY-70" target="Db0PShTD42zC8VwYMhMY-68" edge="1">
          <mxGeometry relative="1" as="geometry" />
        </mxCell>
        <mxCell id="Db0PShTD42zC8VwYMhMY-75" style="edgeStyle=orthogonalEdgeStyle;shape=connector;rounded=0;orthogonalLoop=1;jettySize=auto;html=1;exitX=0.5;exitY=1;exitDx=0;exitDy=0;exitPerimeter=0;entryX=1;entryY=0.4;entryDx=0;entryDy=0;entryPerimeter=0;strokeColor=#005073;align=center;verticalAlign=middle;fontFamily=Helvetica;fontSize=12;fontColor=#005073;labelBackgroundColor=default;endArrow=none;endFill=0;" parent="1" source="Db0PShTD42zC8VwYMhMY-72" target="Db0PShTD42zC8VwYMhMY-68" edge="1">
          <mxGeometry relative="1" as="geometry" />
        </mxCell>
        <mxCell id="Db0PShTD42zC8VwYMhMY-76" style="edgeStyle=orthogonalEdgeStyle;shape=connector;rounded=0;orthogonalLoop=1;jettySize=auto;html=1;exitX=0.5;exitY=1;exitDx=0;exitDy=0;exitPerimeter=0;entryX=1;entryY=0.6;entryDx=0;entryDy=0;entryPerimeter=0;strokeColor=#005073;align=center;verticalAlign=middle;fontFamily=Helvetica;fontSize=12;fontColor=#005073;labelBackgroundColor=default;endArrow=none;endFill=0;" parent="1" source="Db0PShTD42zC8VwYMhMY-71" target="Db0PShTD42zC8VwYMhMY-68" edge="1">
          <mxGeometry relative="1" as="geometry" />
        </mxCell>
        <mxCell id="Db0PShTD42zC8VwYMhMY-77" value="G1/0/4-5" style="text;html=1;align=center;verticalAlign=middle;whiteSpace=wrap;rounded=0;fontFamily=Helvetica;fontSize=12;fontColor=#005073;fontStyle=1" parent="1" vertex="1">
          <mxGeometry x="375.5" y="479" width="60" height="30" as="geometry" />
        </mxCell>
        <mxCell id="Db0PShTD42zC8VwYMhMY-78" value="G1/0/6" style="text;html=1;align=center;verticalAlign=middle;whiteSpace=wrap;rounded=0;fontFamily=Helvetica;fontSize=12;fontColor=#005073;fontStyle=1" parent="1" vertex="1">
          <mxGeometry x="371" y="495" width="60" height="30" as="geometry" />
        </mxCell>
        <mxCell id="Db0PShTD42zC8VwYMhMY-79" value="&lt;div&gt;&lt;b style=&quot;&quot;&gt;&lt;font style=&quot;font-size: 12px;&quot;&gt;1x&lt;/font&gt;&lt;/b&gt;&lt;/div&gt;" style="text;html=1;align=center;verticalAlign=middle;whiteSpace=wrap;rounded=0;fontColor=#005073;" parent="1" vertex="1">
          <mxGeometry x="400" y="391" width="91" height="30" as="geometry" />
        </mxCell>
        <mxCell id="Db0PShTD42zC8VwYMhMY-80" value="&lt;div&gt;&lt;b style=&quot;&quot;&gt;&lt;font style=&quot;font-size: 12px;&quot;&gt;2x&lt;/font&gt;&lt;/b&gt;&lt;/div&gt;" style="text;html=1;align=center;verticalAlign=middle;whiteSpace=wrap;rounded=0;fontColor=#005073;" parent="1" vertex="1">
          <mxGeometry x="474.5" y="387" width="91" height="30" as="geometry" />
        </mxCell>
        <mxCell id="Db0PShTD42zC8VwYMhMY-81" value="&lt;div&gt;&lt;b style=&quot;&quot;&gt;&lt;font style=&quot;font-size: 12px;&quot;&gt;1x&lt;/font&gt;&lt;/b&gt;&lt;/div&gt;" style="text;html=1;align=center;verticalAlign=middle;whiteSpace=wrap;rounded=0;fontColor=#005073;" parent="1" vertex="1">
          <mxGeometry x="538" y="395" width="91" height="30" as="geometry" />
        </mxCell>
        <mxCell id="Db0PShTD42zC8VwYMhMY-84" value="" style="points=[[0.03,0.03,0],[0.5,0,0],[0.97,0.03,0],[1,0.4,0],[0.97,0.745,0],[0.5,1,0],[0.03,0.745,0],[0,0.4,0]];verticalLabelPosition=bottom;sketch=0;html=1;verticalAlign=top;aspect=fixed;align=center;pointerEvents=1;shape=mxgraph.cisco19.workstation;fillColor=#005073;strokeColor=none;rounded=0;fontFamily=Helvetica;fontSize=12;fontColor=#005073;" parent="1" vertex="1">
          <mxGeometry x="636" y="415" width="50" height="40" as="geometry" />
        </mxCell>
        <mxCell id="Db0PShTD42zC8VwYMhMY-85" style="edgeStyle=orthogonalEdgeStyle;shape=connector;rounded=0;orthogonalLoop=1;jettySize=auto;html=1;exitX=0.5;exitY=1;exitDx=0;exitDy=0;exitPerimeter=0;entryX=1;entryY=0.8;entryDx=0;entryDy=0;entryPerimeter=0;strokeColor=#005073;align=center;verticalAlign=middle;fontFamily=Helvetica;fontSize=12;fontColor=#005073;labelBackgroundColor=default;endArrow=none;endFill=0;" parent="1" source="Db0PShTD42zC8VwYMhMY-84" target="Db0PShTD42zC8VwYMhMY-68" edge="1">
          <mxGeometry relative="1" as="geometry" />
        </mxCell>
        <mxCell id="Db0PShTD42zC8VwYMhMY-86" value="&lt;div&gt;&lt;b style=&quot;&quot;&gt;&lt;font style=&quot;font-size: 12px;&quot;&gt;6x&lt;/font&gt;&lt;/b&gt;&lt;/div&gt;" style="text;html=1;align=center;verticalAlign=middle;whiteSpace=wrap;rounded=0;fontColor=#005073;" parent="1" vertex="1">
          <mxGeometry x="615.5" y="391" width="91" height="30" as="geometry" />
        </mxCell>
        <mxCell id="Db0PShTD42zC8VwYMhMY-87" value="" style="sketch=0;points=[[0,0.2,0,0,0],[0,0.4,0,0,0],[0,0.6,0,0,0],[0,0.8,0,0,0],[0.015,0.015,0,0,0],[0.015,0.985,0,0,0],[0.2,0,0,0,0],[0.2,1,0,0,0],[0.4,0,0,0,0],[0.4,1,0,0,0],[0.6,0,0,0,0],[0.6,1,0,0,0],[0.8,0,0,0,0],[0.8,1,0,0,0],[0.985,0.015,0,0,0],[0.985,0.985,0,0,0],[1,0.2,0,0,0],[1,0.4,0,0,0],[1,0.6,0,0,0],[1,0.8,0,0,0]];verticalLabelPosition=bottom;html=1;verticalAlign=top;aspect=fixed;align=center;pointerEvents=1;shape=mxgraph.cisco19.rect;prIcon=l2_switch;fillColor=#FAFAFA;strokeColor=#005073;" parent="1" vertex="1">
          <mxGeometry x="300" y="658" width="80" height="80" as="geometry" />
        </mxCell>
        <mxCell id="Db0PShTD42zC8VwYMhMY-88" value="&lt;span style=&quot;font-size: 11px;&quot;&gt;&lt;b&gt;S_AN_LAB_1&lt;/b&gt;&lt;/span&gt;" style="text;html=1;align=center;verticalAlign=middle;whiteSpace=wrap;rounded=0;fontColor=#005073;" parent="1" vertex="1">
          <mxGeometry x="309" y="635" width="60" height="30" as="geometry" />
        </mxCell>
        <mxCell id="Db0PShTD42zC8VwYMhMY-89" value="" style="points=[[0.22,0.185,0],[0.5,0,0],[0.78,0.185,0],[0.975,0.49,0],[1,0.73,0],[0.975,0.97,0],[0.5,1,0],[0.025,0.97,0],[0,0.73,0],[0.025,0.49,0]];verticalLabelPosition=bottom;sketch=0;html=1;verticalAlign=top;aspect=fixed;align=center;pointerEvents=1;shape=mxgraph.cisco19.printer;fillColor=#005073;strokeColor=none;" parent="1" vertex="1">
          <mxGeometry x="420.5" y="605" width="50" height="45" as="geometry" />
        </mxCell>
        <mxCell id="Db0PShTD42zC8VwYMhMY-90" value="" style="points=[[0.015,0.015,0],[0.5,0,0],[0.985,0.015,0],[1,0.22,0],[0.985,0.43,0],[0.73,0.85,0],[0.5,1,0],[0.285,0.85,0],[0.015,0.43,0],[0,0.22,0]];verticalLabelPosition=bottom;sketch=0;html=1;verticalAlign=top;aspect=fixed;align=center;pointerEvents=1;shape=mxgraph.cisco19.surveillance_camera;fillColor=#005073;strokeColor=none;" parent="1" vertex="1">
          <mxGeometry x="556.5" y="607" width="54" height="42.19" as="geometry" />
        </mxCell>
        <mxCell id="Db0PShTD42zC8VwYMhMY-91" value="" style="points=[[0.59,0,0],[0.87,0.015,0],[0.88,0.3,0],[0.99,0.99,0],[0.5,1,0],[0.01,0.99,0],[0.075,0.5,0],[0.17,0.115,0]];verticalLabelPosition=bottom;sketch=0;html=1;verticalAlign=top;aspect=fixed;align=center;pointerEvents=1;shape=mxgraph.cisco19.ip_phone;fillColor=#005073;strokeColor=none;" parent="1" vertex="1">
          <mxGeometry x="484.5" y="600" width="57.49999999999999" height="50" as="geometry" />
        </mxCell>
        <mxCell id="Db0PShTD42zC8VwYMhMY-92" value="G1/0/3" style="text;html=1;align=center;verticalAlign=middle;whiteSpace=wrap;rounded=0;fontFamily=Helvetica;fontSize=12;fontColor=#005073;fontStyle=1" parent="1" vertex="1">
          <mxGeometry x="369.5" y="653" width="60" height="30" as="geometry" />
        </mxCell>
        <mxCell id="Db0PShTD42zC8VwYMhMY-93" style="edgeStyle=orthogonalEdgeStyle;shape=connector;rounded=0;orthogonalLoop=1;jettySize=auto;html=1;exitX=0.5;exitY=1;exitDx=0;exitDy=0;exitPerimeter=0;entryX=1;entryY=0.2;entryDx=0;entryDy=0;entryPerimeter=0;strokeColor=#005073;align=center;verticalAlign=middle;fontFamily=Helvetica;fontSize=12;fontColor=#005073;labelBackgroundColor=default;endArrow=none;endFill=0;" parent="1" source="Db0PShTD42zC8VwYMhMY-89" target="Db0PShTD42zC8VwYMhMY-87" edge="1">
          <mxGeometry relative="1" as="geometry" />
        </mxCell>
        <mxCell id="Db0PShTD42zC8VwYMhMY-94" style="edgeStyle=orthogonalEdgeStyle;shape=connector;rounded=0;orthogonalLoop=1;jettySize=auto;html=1;exitX=0.5;exitY=1;exitDx=0;exitDy=0;exitPerimeter=0;entryX=1;entryY=0.4;entryDx=0;entryDy=0;entryPerimeter=0;strokeColor=#005073;align=center;verticalAlign=middle;fontFamily=Helvetica;fontSize=12;fontColor=#005073;labelBackgroundColor=default;endArrow=none;endFill=0;" parent="1" source="Db0PShTD42zC8VwYMhMY-91" target="Db0PShTD42zC8VwYMhMY-87" edge="1">
          <mxGeometry relative="1" as="geometry" />
        </mxCell>
        <mxCell id="Db0PShTD42zC8VwYMhMY-95" style="edgeStyle=orthogonalEdgeStyle;shape=connector;rounded=0;orthogonalLoop=1;jettySize=auto;html=1;exitX=0.5;exitY=1;exitDx=0;exitDy=0;exitPerimeter=0;entryX=1;entryY=0.6;entryDx=0;entryDy=0;entryPerimeter=0;strokeColor=#005073;align=center;verticalAlign=middle;fontFamily=Helvetica;fontSize=12;fontColor=#005073;labelBackgroundColor=default;endArrow=none;endFill=0;" parent="1" source="Db0PShTD42zC8VwYMhMY-90" target="Db0PShTD42zC8VwYMhMY-87" edge="1">
          <mxGeometry relative="1" as="geometry" />
        </mxCell>
        <mxCell id="Db0PShTD42zC8VwYMhMY-96" value="G1/0/4" style="text;html=1;align=center;verticalAlign=middle;whiteSpace=wrap;rounded=0;fontFamily=Helvetica;fontSize=12;fontColor=#005073;fontStyle=1" parent="1" vertex="1">
          <mxGeometry x="369.5" y="669" width="60" height="30" as="geometry" />
        </mxCell>
        <mxCell id="Db0PShTD42zC8VwYMhMY-97" value="G1/0/5-7" style="text;html=1;align=center;verticalAlign=middle;whiteSpace=wrap;rounded=0;fontFamily=Helvetica;fontSize=12;fontColor=#005073;fontStyle=1" parent="1" vertex="1">
          <mxGeometry x="375" y="685" width="60" height="30" as="geometry" />
        </mxCell>
        <mxCell id="Db0PShTD42zC8VwYMhMY-98" value="&lt;div&gt;&lt;b style=&quot;&quot;&gt;&lt;font style=&quot;font-size: 12px;&quot;&gt;1x&lt;/font&gt;&lt;/b&gt;&lt;/div&gt;" style="text;html=1;align=center;verticalAlign=middle;whiteSpace=wrap;rounded=0;fontColor=#005073;" parent="1" vertex="1">
          <mxGeometry x="400" y="581" width="91" height="30" as="geometry" />
        </mxCell>
        <mxCell id="Db0PShTD42zC8VwYMhMY-99" value="&lt;div&gt;&lt;b style=&quot;&quot;&gt;&lt;font style=&quot;font-size: 12px;&quot;&gt;1x&lt;/font&gt;&lt;/b&gt;&lt;/div&gt;" style="text;html=1;align=center;verticalAlign=middle;whiteSpace=wrap;rounded=0;fontColor=#005073;" parent="1" vertex="1">
          <mxGeometry x="474.5" y="577" width="91" height="30" as="geometry" />
        </mxCell>
        <mxCell id="Db0PShTD42zC8VwYMhMY-100" value="&lt;div&gt;&lt;b style=&quot;&quot;&gt;&lt;font style=&quot;font-size: 12px;&quot;&gt;3x&lt;/font&gt;&lt;/b&gt;&lt;/div&gt;" style="text;html=1;align=center;verticalAlign=middle;whiteSpace=wrap;rounded=0;fontColor=#005073;" parent="1" vertex="1">
          <mxGeometry x="538" y="585" width="91" height="30" as="geometry" />
        </mxCell>
        <mxCell id="Db0PShTD42zC8VwYMhMY-101" value="" style="points=[[0.03,0.03,0],[0.5,0,0],[0.97,0.03,0],[1,0.4,0],[0.97,0.745,0],[0.5,1,0],[0.03,0.745,0],[0,0.4,0]];verticalLabelPosition=bottom;sketch=0;html=1;verticalAlign=top;aspect=fixed;align=center;pointerEvents=1;shape=mxgraph.cisco19.workstation;fillColor=#005073;strokeColor=none;rounded=0;fontFamily=Helvetica;fontSize=12;fontColor=#005073;" parent="1" vertex="1">
          <mxGeometry x="636" y="605" width="50" height="40" as="geometry" />
        </mxCell>
        <mxCell id="Db0PShTD42zC8VwYMhMY-102" style="edgeStyle=orthogonalEdgeStyle;shape=connector;rounded=0;orthogonalLoop=1;jettySize=auto;html=1;exitX=0.5;exitY=1;exitDx=0;exitDy=0;exitPerimeter=0;entryX=1;entryY=0.8;entryDx=0;entryDy=0;entryPerimeter=0;strokeColor=#005073;align=center;verticalAlign=middle;fontFamily=Helvetica;fontSize=12;fontColor=#005073;labelBackgroundColor=default;endArrow=none;endFill=0;" parent="1" source="Db0PShTD42zC8VwYMhMY-101" target="Db0PShTD42zC8VwYMhMY-87" edge="1">
          <mxGeometry relative="1" as="geometry" />
        </mxCell>
        <mxCell id="Db0PShTD42zC8VwYMhMY-103" value="&lt;div&gt;&lt;b style=&quot;&quot;&gt;&lt;font style=&quot;font-size: 12px;&quot;&gt;10x&lt;/font&gt;&lt;/b&gt;&lt;/div&gt;" style="text;html=1;align=center;verticalAlign=middle;whiteSpace=wrap;rounded=0;fontColor=#005073;" parent="1" vertex="1">
          <mxGeometry x="615.5" y="581" width="91" height="30" as="geometry" />
        </mxCell>
        <mxCell id="Db0PShTD42zC8VwYMhMY-104" value="" style="points=[[0.03,0.36,0],[0.18,0,0],[0.5,0.34,0],[0.82,0,0],[0.97,0.36,0],[1,0.67,0],[0.975,0.975,0],[0.5,1,0],[0.025,0.975,0],[0,0.67,0]];verticalLabelPosition=bottom;sketch=0;html=1;verticalAlign=top;aspect=fixed;align=center;pointerEvents=1;shape=mxgraph.cisco19.wireless_access_point;fillColor=#005073;strokeColor=none;rounded=0;fontFamily=Helvetica;fontSize=12;fontColor=#005073;" parent="1" vertex="1">
          <mxGeometry x="720" y="595" width="50" height="50" as="geometry" />
        </mxCell>
        <mxCell id="Db0PShTD42zC8VwYMhMY-105" style="edgeStyle=orthogonalEdgeStyle;shape=connector;rounded=0;orthogonalLoop=1;jettySize=auto;html=1;exitX=0.5;exitY=1;exitDx=0;exitDy=0;exitPerimeter=0;entryX=0.985;entryY=0.985;entryDx=0;entryDy=0;entryPerimeter=0;strokeColor=#005073;align=center;verticalAlign=middle;fontFamily=Helvetica;fontSize=12;fontColor=#005073;labelBackgroundColor=default;endArrow=none;endFill=0;" parent="1" source="Db0PShTD42zC8VwYMhMY-104" target="Db0PShTD42zC8VwYMhMY-87" edge="1">
          <mxGeometry relative="1" as="geometry">
            <Array as="points">
              <mxPoint x="745" y="737" />
            </Array>
          </mxGeometry>
        </mxCell>
        <mxCell id="Db0PShTD42zC8VwYMhMY-132" style="edgeStyle=orthogonalEdgeStyle;shape=connector;rounded=0;orthogonalLoop=1;jettySize=auto;html=1;exitX=1;exitY=0.6;exitDx=0;exitDy=0;exitPerimeter=0;strokeColor=#005073;align=center;verticalAlign=middle;fontFamily=Helvetica;fontSize=12;fontColor=#005073;labelBackgroundColor=default;endArrow=none;endFill=0;" parent="1" source="Db0PShTD42zC8VwYMhMY-106" target="Db0PShTD42zC8VwYMhMY-131" edge="1">
          <mxGeometry relative="1" as="geometry" />
        </mxCell>
        <mxCell id="Db0PShTD42zC8VwYMhMY-106" value="" style="sketch=0;points=[[0,0.2,0,0,0],[0,0.4,0,0,0],[0,0.6,0,0,0],[0,0.8,0,0,0],[0.015,0.015,0,0,0],[0.015,0.985,0,0,0],[0.2,0,0,0,0],[0.2,1,0,0,0],[0.4,0,0,0,0],[0.4,1,0,0,0],[0.6,0,0,0,0],[0.6,1,0,0,0],[0.8,0,0,0,0],[0.8,1,0,0,0],[0.985,0.015,0,0,0],[0.985,0.985,0,0,0],[1,0.2,0,0,0],[1,0.4,0,0,0],[1,0.6,0,0,0],[1,0.8,0,0,0]];verticalLabelPosition=bottom;html=1;verticalAlign=top;aspect=fixed;align=center;pointerEvents=1;shape=mxgraph.cisco19.rect;prIcon=l2_switch;fillColor=#FAFAFA;strokeColor=#005073;" parent="1" vertex="1">
          <mxGeometry x="300" y="851" width="80" height="80" as="geometry" />
        </mxCell>
        <mxCell id="Db0PShTD42zC8VwYMhMY-107" value="&lt;span style=&quot;font-size: 11px;&quot;&gt;&lt;b&gt;S_AN_ADM_1&lt;/b&gt;&lt;/span&gt;" style="text;html=1;align=center;verticalAlign=middle;whiteSpace=wrap;rounded=0;fontColor=#005073;" parent="1" vertex="1">
          <mxGeometry x="309" y="828" width="60" height="30" as="geometry" />
        </mxCell>
        <mxCell id="Db0PShTD42zC8VwYMhMY-108" value="" style="points=[[0.22,0.185,0],[0.5,0,0],[0.78,0.185,0],[0.975,0.49,0],[1,0.73,0],[0.975,0.97,0],[0.5,1,0],[0.025,0.97,0],[0,0.73,0],[0.025,0.49,0]];verticalLabelPosition=bottom;sketch=0;html=1;verticalAlign=top;aspect=fixed;align=center;pointerEvents=1;shape=mxgraph.cisco19.printer;fillColor=#005073;strokeColor=none;" parent="1" vertex="1">
          <mxGeometry x="420.5" y="798" width="50" height="45" as="geometry" />
        </mxCell>
        <mxCell id="Db0PShTD42zC8VwYMhMY-110" value="" style="points=[[0.59,0,0],[0.87,0.015,0],[0.88,0.3,0],[0.99,0.99,0],[0.5,1,0],[0.01,0.99,0],[0.075,0.5,0],[0.17,0.115,0]];verticalLabelPosition=bottom;sketch=0;html=1;verticalAlign=top;aspect=fixed;align=center;pointerEvents=1;shape=mxgraph.cisco19.ip_phone;fillColor=#005073;strokeColor=none;" parent="1" vertex="1">
          <mxGeometry x="484.5" y="793" width="57.49999999999999" height="50" as="geometry" />
        </mxCell>
        <mxCell id="Db0PShTD42zC8VwYMhMY-111" value="G1/0/3-5" style="text;html=1;align=center;verticalAlign=middle;whiteSpace=wrap;rounded=0;fontFamily=Helvetica;fontSize=12;fontColor=#005073;fontStyle=1" parent="1" vertex="1">
          <mxGeometry x="375.5" y="846" width="60" height="30" as="geometry" />
        </mxCell>
        <mxCell id="Db0PShTD42zC8VwYMhMY-112" style="edgeStyle=orthogonalEdgeStyle;shape=connector;rounded=0;orthogonalLoop=1;jettySize=auto;html=1;exitX=0.5;exitY=1;exitDx=0;exitDy=0;exitPerimeter=0;entryX=1;entryY=0.2;entryDx=0;entryDy=0;entryPerimeter=0;strokeColor=#005073;align=center;verticalAlign=middle;fontFamily=Helvetica;fontSize=12;fontColor=#005073;labelBackgroundColor=default;endArrow=none;endFill=0;" parent="1" source="Db0PShTD42zC8VwYMhMY-108" target="Db0PShTD42zC8VwYMhMY-106" edge="1">
          <mxGeometry relative="1" as="geometry" />
        </mxCell>
        <mxCell id="Db0PShTD42zC8VwYMhMY-113" style="edgeStyle=orthogonalEdgeStyle;shape=connector;rounded=0;orthogonalLoop=1;jettySize=auto;html=1;exitX=0.5;exitY=1;exitDx=0;exitDy=0;exitPerimeter=0;entryX=1;entryY=0.4;entryDx=0;entryDy=0;entryPerimeter=0;strokeColor=#005073;align=center;verticalAlign=middle;fontFamily=Helvetica;fontSize=12;fontColor=#005073;labelBackgroundColor=default;endArrow=none;endFill=0;" parent="1" source="Db0PShTD42zC8VwYMhMY-110" target="Db0PShTD42zC8VwYMhMY-106" edge="1">
          <mxGeometry relative="1" as="geometry" />
        </mxCell>
        <mxCell id="Db0PShTD42zC8VwYMhMY-115" value="G1/0/6-7" style="text;html=1;align=center;verticalAlign=middle;whiteSpace=wrap;rounded=0;fontFamily=Helvetica;fontSize=12;fontColor=#005073;fontStyle=1" parent="1" vertex="1">
          <mxGeometry x="375.5" y="862" width="60" height="30" as="geometry" />
        </mxCell>
        <mxCell id="Db0PShTD42zC8VwYMhMY-116" value="G1/0/8-17" style="text;html=1;align=center;verticalAlign=middle;whiteSpace=wrap;rounded=0;fontFamily=Helvetica;fontSize=12;fontColor=#005073;fontStyle=1" parent="1" vertex="1">
          <mxGeometry x="378" y="878" width="60" height="30" as="geometry" />
        </mxCell>
        <mxCell id="Db0PShTD42zC8VwYMhMY-117" value="&lt;div&gt;&lt;b style=&quot;&quot;&gt;&lt;font style=&quot;font-size: 12px;&quot;&gt;3x&lt;/font&gt;&lt;/b&gt;&lt;/div&gt;" style="text;html=1;align=center;verticalAlign=middle;whiteSpace=wrap;rounded=0;fontColor=#005073;" parent="1" vertex="1">
          <mxGeometry x="400" y="774" width="91" height="30" as="geometry" />
        </mxCell>
        <mxCell id="Db0PShTD42zC8VwYMhMY-118" value="&lt;div&gt;&lt;b style=&quot;&quot;&gt;&lt;font style=&quot;font-size: 12px;&quot;&gt;2x&lt;/font&gt;&lt;/b&gt;&lt;/div&gt;" style="text;html=1;align=center;verticalAlign=middle;whiteSpace=wrap;rounded=0;fontColor=#005073;" parent="1" vertex="1">
          <mxGeometry x="474.5" y="770" width="91" height="30" as="geometry" />
        </mxCell>
        <mxCell id="Db0PShTD42zC8VwYMhMY-122" value="&lt;div&gt;&lt;b style=&quot;&quot;&gt;&lt;font style=&quot;font-size: 12px;&quot;&gt;10x&lt;/font&gt;&lt;/b&gt;&lt;/div&gt;" style="text;html=1;align=center;verticalAlign=middle;whiteSpace=wrap;rounded=0;fontColor=#005073;" parent="1" vertex="1">
          <mxGeometry x="545" y="776.5" width="91" height="30" as="geometry" />
        </mxCell>
        <mxCell id="Db0PShTD42zC8VwYMhMY-123" value="" style="points=[[0.03,0.36,0],[0.18,0,0],[0.5,0.34,0],[0.82,0,0],[0.97,0.36,0],[1,0.67,0],[0.975,0.975,0],[0.5,1,0],[0.025,0.975,0],[0,0.67,0]];verticalLabelPosition=bottom;sketch=0;html=1;verticalAlign=top;aspect=fixed;align=center;pointerEvents=1;shape=mxgraph.cisco19.wireless_access_point;fillColor=#005073;strokeColor=none;rounded=0;fontFamily=Helvetica;fontSize=12;fontColor=#005073;" parent="1" vertex="1">
          <mxGeometry x="641" y="793" width="50" height="50" as="geometry" />
        </mxCell>
        <mxCell id="Db0PShTD42zC8VwYMhMY-124" style="edgeStyle=orthogonalEdgeStyle;shape=connector;rounded=0;orthogonalLoop=1;jettySize=auto;html=1;exitX=0.5;exitY=1;exitDx=0;exitDy=0;exitPerimeter=0;entryX=1;entryY=0.8;entryDx=0;entryDy=0;entryPerimeter=0;strokeColor=#005073;align=center;verticalAlign=middle;fontFamily=Helvetica;fontSize=12;fontColor=#005073;labelBackgroundColor=default;endArrow=none;endFill=0;" parent="1" source="Db0PShTD42zC8VwYMhMY-123" target="Db0PShTD42zC8VwYMhMY-106" edge="1">
          <mxGeometry relative="1" as="geometry">
            <Array as="points">
              <mxPoint x="666" y="915" />
            </Array>
          </mxGeometry>
        </mxCell>
        <mxCell id="Db0PShTD42zC8VwYMhMY-127" style="edgeStyle=orthogonalEdgeStyle;shape=connector;rounded=0;orthogonalLoop=1;jettySize=auto;html=1;exitX=0.5;exitY=1;exitDx=0;exitDy=0;exitPerimeter=0;strokeColor=#005073;align=center;verticalAlign=middle;fontFamily=Helvetica;fontSize=12;fontColor=#005073;labelBackgroundColor=default;endArrow=none;endFill=0;" parent="1" source="Db0PShTD42zC8VwYMhMY-125" edge="1">
          <mxGeometry relative="1" as="geometry">
            <mxPoint x="380" y="331" as="targetPoint" />
            <Array as="points">
              <mxPoint x="586" y="292" />
              <mxPoint x="586" y="310" />
              <mxPoint x="586" y="331" />
            </Array>
          </mxGeometry>
        </mxCell>
        <mxCell id="Db0PShTD42zC8VwYMhMY-125" value="" style="points=[[0.015,0.015,0],[0.5,0,0],[0.985,0.015,0],[1,0.22,0],[0.985,0.43,0],[0.73,0.85,0],[0.5,1,0],[0.285,0.85,0],[0.015,0.43,0],[0,0.22,0]];verticalLabelPosition=bottom;sketch=0;html=1;verticalAlign=top;aspect=fixed;align=center;pointerEvents=1;shape=mxgraph.cisco19.surveillance_camera;fillColor=#005073;strokeColor=none;" parent="1" vertex="1">
          <mxGeometry x="558.5" y="229.81" width="54" height="42.19" as="geometry" />
        </mxCell>
        <mxCell id="Db0PShTD42zC8VwYMhMY-128" style="edgeStyle=orthogonalEdgeStyle;shape=connector;rounded=0;orthogonalLoop=1;jettySize=auto;html=1;exitX=0.5;exitY=1;exitDx=0;exitDy=0;exitPerimeter=0;entryX=1;entryY=0.8;entryDx=0;entryDy=0;entryPerimeter=0;strokeColor=#005073;align=center;verticalAlign=middle;fontFamily=Helvetica;fontSize=12;fontColor=#005073;labelBackgroundColor=default;endArrow=none;endFill=0;" parent="1" source="Db0PShTD42zC8VwYMhMY-59" target="Db0PShTD42zC8VwYMhMY-42" edge="1">
          <mxGeometry relative="1" as="geometry" />
        </mxCell>
        <mxCell id="Db0PShTD42zC8VwYMhMY-129" style="edgeStyle=orthogonalEdgeStyle;shape=connector;rounded=0;orthogonalLoop=1;jettySize=auto;html=1;exitX=0.5;exitY=1;exitDx=0;exitDy=0;exitPerimeter=0;entryX=0.985;entryY=0.985;entryDx=0;entryDy=0;entryPerimeter=0;strokeColor=#005073;align=center;verticalAlign=middle;fontFamily=Helvetica;fontSize=12;fontColor=#005073;labelBackgroundColor=default;endArrow=none;endFill=0;" parent="1" source="Db0PShTD42zC8VwYMhMY-61" target="Db0PShTD42zC8VwYMhMY-42" edge="1">
          <mxGeometry relative="1" as="geometry">
            <Array as="points">
              <mxPoint x="732" y="360" />
            </Array>
          </mxGeometry>
        </mxCell>
        <mxCell id="Db0PShTD42zC8VwYMhMY-130" value="&lt;div&gt;&lt;b style=&quot;&quot;&gt;&lt;font style=&quot;font-size: 12px;&quot;&gt;2x&lt;/font&gt;&lt;/b&gt;&lt;/div&gt;" style="text;html=1;align=center;verticalAlign=middle;whiteSpace=wrap;rounded=0;fontColor=#005073;" parent="1" vertex="1">
          <mxGeometry x="540" y="208" width="91" height="30" as="geometry" />
        </mxCell>
        <mxCell id="Db0PShTD42zC8VwYMhMY-131" value="" style="sketch=0;pointerEvents=1;shadow=0;dashed=0;html=1;strokeColor=none;fillColor=#005073;aspect=fixed;labelPosition=center;verticalLabelPosition=bottom;verticalAlign=top;align=center;outlineConnect=0;shape=mxgraph.vvd.ethernet_port;rounded=0;fontFamily=Helvetica;fontSize=12;fontColor=#005073;" parent="1" vertex="1">
          <mxGeometry x="570.5" y="803" width="40" height="40" as="geometry" />
        </mxCell>
        <mxCell id="Db0PShTD42zC8VwYMhMY-169" style="edgeStyle=orthogonalEdgeStyle;shape=connector;rounded=0;orthogonalLoop=1;jettySize=auto;html=1;exitX=1;exitY=0.6;exitDx=0;exitDy=0;exitPerimeter=0;strokeColor=#005073;align=center;verticalAlign=middle;fontFamily=Helvetica;fontSize=12;fontColor=#005073;labelBackgroundColor=default;endArrow=none;endFill=0;" parent="1" source="Db0PShTD42zC8VwYMhMY-134" target="Db0PShTD42zC8VwYMhMY-151" edge="1">
          <mxGeometry relative="1" as="geometry" />
        </mxCell>
        <mxCell id="Db0PShTD42zC8VwYMhMY-134" value="" style="sketch=0;points=[[0,0.2,0,0,0],[0,0.4,0,0,0],[0,0.6,0,0,0],[0,0.8,0,0,0],[0.015,0.015,0,0,0],[0.015,0.985,0,0,0],[0.2,0,0,0,0],[0.2,1,0,0,0],[0.4,0,0,0,0],[0.4,1,0,0,0],[0.6,0,0,0,0],[0.6,1,0,0,0],[0.8,0,0,0,0],[0.8,1,0,0,0],[0.985,0.015,0,0,0],[0.985,0.985,0,0,0],[1,0.2,0,0,0],[1,0.4,0,0,0],[1,0.6,0,0,0],[1,0.8,0,0,0]];verticalLabelPosition=bottom;html=1;verticalAlign=top;aspect=fixed;align=center;pointerEvents=1;shape=mxgraph.cisco19.rect;prIcon=l2_switch;fillColor=#FAFAFA;strokeColor=#005073;" parent="1" vertex="1">
          <mxGeometry x="301" y="1037" width="80" height="80" as="geometry" />
        </mxCell>
        <mxCell id="Db0PShTD42zC8VwYMhMY-135" value="&lt;span style=&quot;font-size: 11px;&quot;&gt;&lt;b&gt;S_AN_IT_1&lt;/b&gt;&lt;/span&gt;" style="text;html=1;align=center;verticalAlign=middle;whiteSpace=wrap;rounded=0;fontColor=#005073;" parent="1" vertex="1">
          <mxGeometry x="310" y="1014" width="60" height="30" as="geometry" />
        </mxCell>
        <mxCell id="Db0PShTD42zC8VwYMhMY-136" value="" style="points=[[0.22,0.185,0],[0.5,0,0],[0.78,0.185,0],[0.975,0.49,0],[1,0.73,0],[0.975,0.97,0],[0.5,1,0],[0.025,0.97,0],[0,0.73,0],[0.025,0.49,0]];verticalLabelPosition=bottom;sketch=0;html=1;verticalAlign=top;aspect=fixed;align=center;pointerEvents=1;shape=mxgraph.cisco19.printer;fillColor=#005073;strokeColor=none;" parent="1" vertex="1">
          <mxGeometry x="421.5" y="984" width="50" height="45" as="geometry" />
        </mxCell>
        <mxCell id="Db0PShTD42zC8VwYMhMY-138" value="" style="points=[[0.59,0,0],[0.87,0.015,0],[0.88,0.3,0],[0.99,0.99,0],[0.5,1,0],[0.01,0.99,0],[0.075,0.5,0],[0.17,0.115,0]];verticalLabelPosition=bottom;sketch=0;html=1;verticalAlign=top;aspect=fixed;align=center;pointerEvents=1;shape=mxgraph.cisco19.ip_phone;fillColor=#005073;strokeColor=none;" parent="1" vertex="1">
          <mxGeometry x="485.5" y="979" width="57.49999999999999" height="50" as="geometry" />
        </mxCell>
        <mxCell id="Db0PShTD42zC8VwYMhMY-139" value="G1/0/3-4" style="text;html=1;align=center;verticalAlign=middle;whiteSpace=wrap;rounded=0;fontFamily=Helvetica;fontSize=12;fontColor=#005073;fontStyle=1" parent="1" vertex="1">
          <mxGeometry x="376.5" y="1032" width="60" height="30" as="geometry" />
        </mxCell>
        <mxCell id="Db0PShTD42zC8VwYMhMY-140" style="edgeStyle=orthogonalEdgeStyle;shape=connector;rounded=0;orthogonalLoop=1;jettySize=auto;html=1;exitX=0.5;exitY=1;exitDx=0;exitDy=0;exitPerimeter=0;entryX=1;entryY=0.2;entryDx=0;entryDy=0;entryPerimeter=0;strokeColor=#005073;align=center;verticalAlign=middle;fontFamily=Helvetica;fontSize=12;fontColor=#005073;labelBackgroundColor=default;endArrow=none;endFill=0;" parent="1" source="Db0PShTD42zC8VwYMhMY-136" target="Db0PShTD42zC8VwYMhMY-134" edge="1">
          <mxGeometry relative="1" as="geometry" />
        </mxCell>
        <mxCell id="Db0PShTD42zC8VwYMhMY-141" style="edgeStyle=orthogonalEdgeStyle;shape=connector;rounded=0;orthogonalLoop=1;jettySize=auto;html=1;exitX=0.5;exitY=1;exitDx=0;exitDy=0;exitPerimeter=0;entryX=1;entryY=0.4;entryDx=0;entryDy=0;entryPerimeter=0;strokeColor=#005073;align=center;verticalAlign=middle;fontFamily=Helvetica;fontSize=12;fontColor=#005073;labelBackgroundColor=default;endArrow=none;endFill=0;" parent="1" source="Db0PShTD42zC8VwYMhMY-138" target="Db0PShTD42zC8VwYMhMY-134" edge="1">
          <mxGeometry relative="1" as="geometry" />
        </mxCell>
        <mxCell id="Db0PShTD42zC8VwYMhMY-143" value="G1/0/5-6" style="text;html=1;align=center;verticalAlign=middle;whiteSpace=wrap;rounded=0;fontFamily=Helvetica;fontSize=12;fontColor=#005073;fontStyle=1" parent="1" vertex="1">
          <mxGeometry x="376.5" y="1048" width="60" height="30" as="geometry" />
        </mxCell>
        <mxCell id="Db0PShTD42zC8VwYMhMY-144" value="G1/0/7-16" style="text;html=1;align=center;verticalAlign=middle;whiteSpace=wrap;rounded=0;fontFamily=Helvetica;fontSize=12;fontColor=#005073;fontStyle=1" parent="1" vertex="1">
          <mxGeometry x="380" y="1064" width="60" height="30" as="geometry" />
        </mxCell>
        <mxCell id="Db0PShTD42zC8VwYMhMY-145" value="&lt;div&gt;&lt;b style=&quot;&quot;&gt;&lt;font style=&quot;font-size: 12px;&quot;&gt;2x&lt;/font&gt;&lt;/b&gt;&lt;/div&gt;" style="text;html=1;align=center;verticalAlign=middle;whiteSpace=wrap;rounded=0;fontColor=#005073;" parent="1" vertex="1">
          <mxGeometry x="401" y="960" width="91" height="30" as="geometry" />
        </mxCell>
        <mxCell id="Db0PShTD42zC8VwYMhMY-146" value="&lt;div&gt;&lt;b style=&quot;&quot;&gt;&lt;font style=&quot;font-size: 12px;&quot;&gt;2x&lt;/font&gt;&lt;/b&gt;&lt;/div&gt;" style="text;html=1;align=center;verticalAlign=middle;whiteSpace=wrap;rounded=0;fontColor=#005073;" parent="1" vertex="1">
          <mxGeometry x="475.5" y="956" width="91" height="30" as="geometry" />
        </mxCell>
        <mxCell id="Db0PShTD42zC8VwYMhMY-148" value="&lt;div&gt;&lt;b style=&quot;&quot;&gt;&lt;font style=&quot;font-size: 12px;&quot;&gt;10x&lt;/font&gt;&lt;/b&gt;&lt;/div&gt;" style="text;html=1;align=center;verticalAlign=middle;whiteSpace=wrap;rounded=0;fontColor=#005073;" parent="1" vertex="1">
          <mxGeometry x="548" y="960" width="91" height="30" as="geometry" />
        </mxCell>
        <mxCell id="Db0PShTD42zC8VwYMhMY-149" value="" style="points=[[0.03,0.36,0],[0.18,0,0],[0.5,0.34,0],[0.82,0,0],[0.97,0.36,0],[1,0.67,0],[0.975,0.975,0],[0.5,1,0],[0.025,0.975,0],[0,0.67,0]];verticalLabelPosition=bottom;sketch=0;html=1;verticalAlign=top;aspect=fixed;align=center;pointerEvents=1;shape=mxgraph.cisco19.wireless_access_point;fillColor=#005073;strokeColor=none;rounded=0;fontFamily=Helvetica;fontSize=12;fontColor=#005073;" parent="1" vertex="1">
          <mxGeometry x="642" y="974" width="50" height="50" as="geometry" />
        </mxCell>
        <mxCell id="Db0PShTD42zC8VwYMhMY-150" style="edgeStyle=orthogonalEdgeStyle;shape=connector;rounded=0;orthogonalLoop=1;jettySize=auto;html=1;exitX=0.5;exitY=1;exitDx=0;exitDy=0;exitPerimeter=0;entryX=0.98;entryY=0.761;entryDx=0;entryDy=0;entryPerimeter=0;strokeColor=#005073;align=center;verticalAlign=middle;fontFamily=Helvetica;fontSize=12;fontColor=#005073;labelBackgroundColor=default;endArrow=none;endFill=0;" parent="1" source="Db0PShTD42zC8VwYMhMY-149" edge="1">
          <mxGeometry relative="1" as="geometry">
            <Array as="points">
              <mxPoint x="667" y="1100" />
            </Array>
            <mxPoint x="682.07" y="1026.04" as="sourcePoint" />
            <mxPoint x="381.0000000000001" y="1099.9199999999998" as="targetPoint" />
          </mxGeometry>
        </mxCell>
        <mxCell id="Db0PShTD42zC8VwYMhMY-151" value="" style="sketch=0;pointerEvents=1;shadow=0;dashed=0;html=1;strokeColor=none;fillColor=#005073;aspect=fixed;labelPosition=center;verticalLabelPosition=bottom;verticalAlign=top;align=center;outlineConnect=0;shape=mxgraph.vvd.ethernet_port;rounded=0;fontFamily=Helvetica;fontSize=12;fontColor=#005073;" parent="1" vertex="1">
          <mxGeometry x="573.5" y="989" width="40" height="40" as="geometry" />
        </mxCell>
        <mxCell id="Db0PShTD42zC8VwYMhMY-153" value="&lt;div&gt;&lt;b style=&quot;&quot;&gt;&lt;font style=&quot;font-size: 12px;&quot;&gt;2x&lt;/font&gt;&lt;/b&gt;&lt;/div&gt;" style="text;html=1;align=center;verticalAlign=middle;whiteSpace=wrap;rounded=0;fontColor=#005073;" parent="1" vertex="1">
          <mxGeometry x="700" y="572" width="91" height="30" as="geometry" />
        </mxCell>
        <mxCell id="Db0PShTD42zC8VwYMhMY-154" value="&lt;div&gt;&lt;b style=&quot;&quot;&gt;&lt;font style=&quot;font-size: 12px;&quot;&gt;3x&lt;/font&gt;&lt;/b&gt;&lt;/div&gt;" style="text;html=1;align=center;verticalAlign=middle;whiteSpace=wrap;rounded=0;fontColor=#005073;" parent="1" vertex="1">
          <mxGeometry x="620.5" y="768" width="91" height="30" as="geometry" />
        </mxCell>
        <mxCell id="Db0PShTD42zC8VwYMhMY-155" value="&lt;div&gt;&lt;b style=&quot;&quot;&gt;&lt;font style=&quot;font-size: 12px;&quot;&gt;3x&lt;/font&gt;&lt;/b&gt;&lt;/div&gt;" style="text;html=1;align=center;verticalAlign=middle;whiteSpace=wrap;rounded=0;fontColor=#005073;" parent="1" vertex="1">
          <mxGeometry x="623.5" y="949" width="91" height="30" as="geometry" />
        </mxCell>
        <mxCell id="Db0PShTD42zC8VwYMhMY-156" value="G1/0/10" style="text;html=1;align=center;verticalAlign=middle;whiteSpace=wrap;rounded=0;fontFamily=Helvetica;fontSize=12;fontColor=#005073;fontStyle=1" parent="1" vertex="1">
          <mxGeometry x="374" y="145" width="60" height="30" as="geometry" />
        </mxCell>
        <mxCell id="Db0PShTD42zC8VwYMhMY-157" value="G1/0/8-15" style="text;html=1;align=center;verticalAlign=middle;whiteSpace=wrap;rounded=0;fontFamily=Helvetica;fontSize=12;fontColor=#005073;fontStyle=1" parent="1" vertex="1">
          <mxGeometry x="379" y="324" width="60" height="30" as="geometry" />
        </mxCell>
        <mxCell id="Db0PShTD42zC8VwYMhMY-158" value="G1/0/16-17" style="text;html=1;align=center;verticalAlign=middle;whiteSpace=wrap;rounded=0;fontFamily=Helvetica;fontSize=12;fontColor=#005073;fontStyle=1" parent="1" vertex="1">
          <mxGeometry x="377" y="339" width="71" height="30" as="geometry" />
        </mxCell>
        <mxCell id="Db0PShTD42zC8VwYMhMY-161" value="G1/0/7-12" style="text;html=1;align=center;verticalAlign=middle;whiteSpace=wrap;rounded=0;fontFamily=Helvetica;fontSize=12;fontColor=#005073;fontStyle=1" parent="1" vertex="1">
          <mxGeometry x="380" y="511" width="60" height="30" as="geometry" />
        </mxCell>
        <mxCell id="Db0PShTD42zC8VwYMhMY-162" value="G1/0/8-17" style="text;html=1;align=center;verticalAlign=middle;whiteSpace=wrap;rounded=0;fontFamily=Helvetica;fontSize=12;fontColor=#005073;fontStyle=1" parent="1" vertex="1">
          <mxGeometry x="378" y="701" width="60" height="30" as="geometry" />
        </mxCell>
        <mxCell id="Db0PShTD42zC8VwYMhMY-163" value="G1/0/18-19" style="text;html=1;align=center;verticalAlign=middle;whiteSpace=wrap;rounded=0;fontFamily=Helvetica;fontSize=12;fontColor=#005073;fontStyle=1" parent="1" vertex="1">
          <mxGeometry x="374" y="716" width="75" height="30" as="geometry" />
        </mxCell>
        <mxCell id="Db0PShTD42zC8VwYMhMY-167" value="G1/0/18-20" style="text;html=1;align=center;verticalAlign=middle;whiteSpace=wrap;rounded=0;fontFamily=Helvetica;fontSize=12;fontColor=#005073;fontStyle=1" parent="1" vertex="1">
          <mxGeometry x="375" y="894" width="72" height="30" as="geometry" />
        </mxCell>
        <mxCell id="Db0PShTD42zC8VwYMhMY-168" value="G1/0/16-18" style="text;html=1;align=center;verticalAlign=middle;whiteSpace=wrap;rounded=0;fontFamily=Helvetica;fontSize=12;fontColor=#005073;fontStyle=1" parent="1" vertex="1">
          <mxGeometry x="372.75" y="1079" width="79.5" height="30" as="geometry" />
        </mxCell>
        <mxCell id="Db0PShTD42zC8VwYMhMY-174" value="&lt;font color=&quot;#00bbea&quot; style=&quot;font-size: 9px;&quot;&gt;Antwerpen Spoed - Onthaal + Triage&lt;/font&gt;" style="text;html=1;align=center;verticalAlign=middle;whiteSpace=wrap;rounded=0;fontFamily=Helvetica;fontSize=12;fontColor=#005073;" parent="1" vertex="1">
          <mxGeometry x="219" y="11" width="200" height="30" as="geometry" />
        </mxCell>
        <mxCell id="Db0PShTD42zC8VwYMhMY-175" value="&lt;font color=&quot;#00bbea&quot; style=&quot;font-size: 9px;&quot;&gt;Antwerpen Spoed - Gang + BOX 1-8&lt;/font&gt;" style="text;html=1;align=center;verticalAlign=middle;whiteSpace=wrap;rounded=0;fontFamily=Helvetica;fontSize=12;fontColor=#005073;" parent="1" vertex="1">
          <mxGeometry x="266" y="193" width="200" height="30" as="geometry" />
        </mxCell>
        <mxCell id="Db0PShTD42zC8VwYMhMY-179" value="&lt;font color=&quot;#00bbea&quot; style=&quot;&quot;&gt;&lt;font size=&quot;1&quot;&gt;Antwerpen Chirurgie&lt;/font&gt;&lt;/font&gt;" style="text;html=1;align=center;verticalAlign=middle;whiteSpace=wrap;rounded=0;fontFamily=Helvetica;fontSize=12;fontColor=#005073;" parent="1" vertex="1">
          <mxGeometry x="240" y="380" width="200" height="30" as="geometry" />
        </mxCell>
        <mxCell id="Db0PShTD42zC8VwYMhMY-181" value="&lt;font color=&quot;#00bbea&quot; style=&quot;&quot;&gt;&lt;font size=&quot;1&quot;&gt;Antwerpen&amp;nbsp;&lt;/font&gt;&lt;/font&gt;&lt;font size=&quot;1&quot; color=&quot;#00bbea&quot;&gt;Laboratoria&lt;/font&gt;" style="text;html=1;align=center;verticalAlign=middle;whiteSpace=wrap;rounded=0;fontFamily=Helvetica;fontSize=12;fontColor=#005073;" parent="1" vertex="1">
          <mxGeometry x="244" y="567.5" width="200" height="30" as="geometry" />
        </mxCell>
        <mxCell id="Db0PShTD42zC8VwYMhMY-183" value="&lt;font color=&quot;#00bbea&quot; style=&quot;&quot;&gt;&lt;font size=&quot;1&quot;&gt;Antwerpen Administratie&lt;/font&gt;&lt;/font&gt;" style="text;html=1;align=center;verticalAlign=middle;whiteSpace=wrap;rounded=0;fontFamily=Helvetica;fontSize=12;fontColor=#005073;" parent="1" vertex="1">
          <mxGeometry x="250" y="758.5" width="200" height="30" as="geometry" />
        </mxCell>
        <mxCell id="Db0PShTD42zC8VwYMhMY-185" value="&lt;font color=&quot;#00bbea&quot; style=&quot;&quot;&gt;&lt;font size=&quot;1&quot;&gt;Antwerpen IT&lt;/font&gt;&lt;/font&gt;" style="text;html=1;align=center;verticalAlign=middle;whiteSpace=wrap;rounded=0;fontFamily=Helvetica;fontSize=12;fontColor=#005073;" parent="1" vertex="1">
          <mxGeometry x="222.5" y="947" width="200" height="30" as="geometry" />
        </mxCell>
        <mxCell id="Jju4vfjA0cxFtH1xlusZ-37" style="edgeStyle=orthogonalEdgeStyle;shape=connector;rounded=0;orthogonalLoop=1;jettySize=auto;html=1;exitX=0;exitY=0.6;exitDx=0;exitDy=0;exitPerimeter=0;strokeColor=#005073;strokeWidth=1;align=center;verticalAlign=middle;fontFamily=Helvetica;fontSize=12;fontColor=#005073;labelBackgroundColor=default;endArrow=none;endFill=0;entryX=0;entryY=0.4;entryDx=0;entryDy=0;entryPerimeter=0;" edge="1" parent="1" source="moupQe_RvfFImWZh-29n-1" target="moupQe_RvfFImWZh-29n-5">
          <mxGeometry relative="1" as="geometry">
            <mxPoint x="-140" y="790" as="targetPoint" />
            <Array as="points">
              <mxPoint x="-130" y="431" />
              <mxPoint x="-130" y="799" />
            </Array>
          </mxGeometry>
        </mxCell>
        <mxCell id="moupQe_RvfFImWZh-29n-1" value="" style="sketch=0;points=[[0,0.2,0,0,0],[0,0.4,0,0,0],[0,0.6,0,0,0],[0,0.8,0,0,0],[0.015,0.015,0,0,0],[0.015,0.985,0,0,0],[0.2,0,0,0,0],[0.2,1,0,0,0],[0.4,0,0,0,0],[0.4,1,0,0,0],[0.6,0,0,0,0],[0.6,1,0,0,0],[0.8,0,0,0,0],[0.8,1,0,0,0],[0.985,0.015,0,0,0],[0.985,0.985,0,0,0],[1,0.2,0,0,0],[1,0.4,0,0,0],[1,0.6,0,0,0],[1,0.8,0,0,0]];verticalLabelPosition=bottom;html=1;verticalAlign=top;aspect=fixed;align=center;pointerEvents=1;shape=mxgraph.cisco19.rect;prIcon=l3_switch;fillColor=#FAFAFA;strokeColor=#005073;" parent="1" vertex="1">
          <mxGeometry x="40" y="379" width="86" height="86" as="geometry" />
        </mxCell>
        <mxCell id="moupQe_RvfFImWZh-29n-2" value="&lt;span style=&quot;font-size: 11px;&quot;&gt;&lt;b&gt;S_AN_DSTR_1&lt;/b&gt;&lt;/span&gt;" style="text;html=1;align=center;verticalAlign=middle;whiteSpace=wrap;rounded=0;fontColor=#005073;strokeColor=none;" parent="1" vertex="1">
          <mxGeometry x="54" y="356" width="60" height="30" as="geometry" />
        </mxCell>
        <mxCell id="moupQe_RvfFImWZh-29n-4" value="&lt;span style=&quot;font-size: 11px;&quot;&gt;&lt;b&gt;S_AN_DSTR_2&lt;/b&gt;&lt;/span&gt;" style="text;html=1;align=center;verticalAlign=middle;whiteSpace=wrap;rounded=0;fontColor=#005073;strokeColor=none;" parent="1" vertex="1">
          <mxGeometry x="-88" y="740" width="60" height="30" as="geometry" />
        </mxCell>
        <mxCell id="moupQe_RvfFImWZh-29n-5" value="" style="sketch=0;points=[[0,0.2,0,0,0],[0,0.4,0,0,0],[0,0.6,0,0,0],[0,0.8,0,0,0],[0.015,0.015,0,0,0],[0.015,0.985,0,0,0],[0.2,0,0,0,0],[0.2,1,0,0,0],[0.4,0,0,0,0],[0.4,1,0,0,0],[0.6,0,0,0,0],[0.6,1,0,0,0],[0.8,0,0,0,0],[0.8,1,0,0,0],[0.985,0.015,0,0,0],[0.985,0.985,0,0,0],[1,0.2,0,0,0],[1,0.4,0,0,0],[1,0.6,0,0,0],[1,0.8,0,0,0]];verticalLabelPosition=bottom;html=1;verticalAlign=top;aspect=fixed;align=center;pointerEvents=1;shape=mxgraph.cisco19.rect;prIcon=l3_switch;fillColor=#FAFAFA;strokeColor=#005073;" parent="1" vertex="1">
          <mxGeometry x="-100" y="765" width="86" height="86" as="geometry" />
        </mxCell>
        <mxCell id="moupQe_RvfFImWZh-29n-14" style="edgeStyle=orthogonalEdgeStyle;shape=connector;rounded=0;orthogonalLoop=1;jettySize=auto;html=1;exitX=0;exitY=0.2;exitDx=0;exitDy=0;exitPerimeter=0;entryX=0.985;entryY=0.015;entryDx=0;entryDy=0;entryPerimeter=0;strokeColor=#005073;align=center;verticalAlign=middle;fontFamily=Helvetica;fontSize=12;fontColor=#005073;labelBackgroundColor=default;endArrow=none;endFill=0;" parent="1" source="Db0PShTD42zC8VwYMhMY-1" target="moupQe_RvfFImWZh-29n-1" edge="1">
          <mxGeometry relative="1" as="geometry">
            <Array as="points">
              <mxPoint x="180" y="119" />
              <mxPoint x="180" y="380" />
            </Array>
          </mxGeometry>
        </mxCell>
        <mxCell id="moupQe_RvfFImWZh-29n-15" style="edgeStyle=orthogonalEdgeStyle;shape=connector;rounded=0;orthogonalLoop=1;jettySize=auto;html=1;exitX=0;exitY=0.2;exitDx=0;exitDy=0;exitPerimeter=0;entryX=1;entryY=0.2;entryDx=0;entryDy=0;entryPerimeter=0;strokeColor=#005073;align=center;verticalAlign=middle;fontFamily=Helvetica;fontSize=12;fontColor=#005073;labelBackgroundColor=default;endArrow=none;endFill=0;" parent="1" source="Db0PShTD42zC8VwYMhMY-42" target="moupQe_RvfFImWZh-29n-1" edge="1">
          <mxGeometry relative="1" as="geometry">
            <Array as="points">
              <mxPoint x="190" y="297" />
              <mxPoint x="190" y="396" />
            </Array>
          </mxGeometry>
        </mxCell>
        <mxCell id="moupQe_RvfFImWZh-29n-16" style="edgeStyle=orthogonalEdgeStyle;shape=connector;rounded=0;orthogonalLoop=1;jettySize=auto;html=1;exitX=0;exitY=0.2;exitDx=0;exitDy=0;exitPerimeter=0;entryX=1;entryY=0.4;entryDx=0;entryDy=0;entryPerimeter=0;strokeColor=#005073;align=center;verticalAlign=middle;fontFamily=Helvetica;fontSize=12;fontColor=#005073;labelBackgroundColor=default;endArrow=none;endFill=0;" parent="1" source="Db0PShTD42zC8VwYMhMY-68" target="moupQe_RvfFImWZh-29n-1" edge="1">
          <mxGeometry relative="1" as="geometry">
            <Array as="points">
              <mxPoint x="190" y="484" />
              <mxPoint x="190" y="413" />
            </Array>
          </mxGeometry>
        </mxCell>
        <mxCell id="moupQe_RvfFImWZh-29n-17" style="edgeStyle=orthogonalEdgeStyle;shape=connector;rounded=0;orthogonalLoop=1;jettySize=auto;html=1;exitX=0;exitY=0.2;exitDx=0;exitDy=0;exitPerimeter=0;entryX=1;entryY=0.6;entryDx=0;entryDy=0;entryPerimeter=0;strokeColor=#005073;align=center;verticalAlign=middle;fontFamily=Helvetica;fontSize=12;fontColor=#005073;labelBackgroundColor=default;endArrow=none;endFill=0;" parent="1" source="Db0PShTD42zC8VwYMhMY-87" target="moupQe_RvfFImWZh-29n-1" edge="1">
          <mxGeometry relative="1" as="geometry">
            <Array as="points">
              <mxPoint x="180" y="674" />
              <mxPoint x="180" y="431" />
            </Array>
          </mxGeometry>
        </mxCell>
        <mxCell id="moupQe_RvfFImWZh-29n-18" style="edgeStyle=orthogonalEdgeStyle;shape=connector;rounded=0;orthogonalLoop=1;jettySize=auto;html=1;exitX=0;exitY=0.2;exitDx=0;exitDy=0;exitPerimeter=0;entryX=1;entryY=0.8;entryDx=0;entryDy=0;entryPerimeter=0;strokeColor=#005073;align=center;verticalAlign=middle;fontFamily=Helvetica;fontSize=12;fontColor=#005073;labelBackgroundColor=default;endArrow=none;endFill=0;" parent="1" source="Db0PShTD42zC8VwYMhMY-106" target="moupQe_RvfFImWZh-29n-1" edge="1">
          <mxGeometry relative="1" as="geometry">
            <Array as="points">
              <mxPoint x="170" y="867" />
              <mxPoint x="170" y="448" />
            </Array>
          </mxGeometry>
        </mxCell>
        <mxCell id="moupQe_RvfFImWZh-29n-19" style="edgeStyle=orthogonalEdgeStyle;shape=connector;rounded=0;orthogonalLoop=1;jettySize=auto;html=1;exitX=0;exitY=0.2;exitDx=0;exitDy=0;exitPerimeter=0;entryX=0.985;entryY=0.985;entryDx=0;entryDy=0;entryPerimeter=0;strokeColor=#005073;align=center;verticalAlign=middle;fontFamily=Helvetica;fontSize=12;fontColor=#005073;labelBackgroundColor=default;endArrow=none;endFill=0;" parent="1" source="Db0PShTD42zC8VwYMhMY-134" target="moupQe_RvfFImWZh-29n-1" edge="1">
          <mxGeometry relative="1" as="geometry">
            <Array as="points">
              <mxPoint x="160" y="1053" />
              <mxPoint x="160" y="464" />
            </Array>
          </mxGeometry>
        </mxCell>
        <mxCell id="moupQe_RvfFImWZh-29n-22" style="edgeStyle=orthogonalEdgeStyle;shape=connector;rounded=0;orthogonalLoop=1;jettySize=auto;html=1;exitX=0;exitY=0.8;exitDx=0;exitDy=0;exitPerimeter=0;entryX=0.985;entryY=0.015;entryDx=0;entryDy=0;entryPerimeter=0;strokeColor=#005073;align=center;verticalAlign=middle;fontFamily=Helvetica;fontSize=12;fontColor=#005073;labelBackgroundColor=default;endArrow=none;endFill=0;strokeWidth=2;" parent="1" source="Db0PShTD42zC8VwYMhMY-1" target="moupQe_RvfFImWZh-29n-5" edge="1">
          <mxGeometry relative="1" as="geometry">
            <Array as="points">
              <mxPoint y="167" />
              <mxPoint y="766" />
              <mxPoint x="-15" y="766" />
            </Array>
          </mxGeometry>
        </mxCell>
        <mxCell id="moupQe_RvfFImWZh-29n-23" style="edgeStyle=orthogonalEdgeStyle;shape=connector;rounded=0;orthogonalLoop=1;jettySize=auto;html=1;exitX=0;exitY=0.8;exitDx=0;exitDy=0;exitPerimeter=0;entryX=1;entryY=0.2;entryDx=0;entryDy=0;entryPerimeter=0;strokeColor=#005073;align=center;verticalAlign=middle;fontFamily=Helvetica;fontSize=12;fontColor=#005073;labelBackgroundColor=default;endArrow=none;endFill=0;strokeWidth=2;" parent="1" source="Db0PShTD42zC8VwYMhMY-42" target="moupQe_RvfFImWZh-29n-5" edge="1">
          <mxGeometry relative="1" as="geometry">
            <Array as="points">
              <mxPoint x="10" y="345" />
              <mxPoint x="10" y="781" />
              <mxPoint x="-14" y="781" />
            </Array>
          </mxGeometry>
        </mxCell>
        <mxCell id="moupQe_RvfFImWZh-29n-25" style="edgeStyle=orthogonalEdgeStyle;shape=connector;rounded=0;orthogonalLoop=1;jettySize=auto;html=1;exitX=0;exitY=0.8;exitDx=0;exitDy=0;exitPerimeter=0;entryX=1;entryY=0.4;entryDx=0;entryDy=0;entryPerimeter=0;strokeColor=#005073;align=center;verticalAlign=middle;fontFamily=Helvetica;fontSize=12;fontColor=#005073;labelBackgroundColor=default;endArrow=none;endFill=0;strokeWidth=2;" parent="1" source="Db0PShTD42zC8VwYMhMY-68" target="moupQe_RvfFImWZh-29n-5" edge="1">
          <mxGeometry relative="1" as="geometry">
            <Array as="points">
              <mxPoint x="20" y="532" />
              <mxPoint x="20" y="798" />
              <mxPoint x="-14" y="798" />
            </Array>
          </mxGeometry>
        </mxCell>
        <mxCell id="moupQe_RvfFImWZh-29n-26" style="edgeStyle=orthogonalEdgeStyle;shape=connector;rounded=0;orthogonalLoop=1;jettySize=auto;html=1;exitX=0;exitY=0.8;exitDx=0;exitDy=0;exitPerimeter=0;entryX=1;entryY=0.6;entryDx=0;entryDy=0;entryPerimeter=0;strokeColor=#005073;align=center;verticalAlign=middle;fontFamily=Helvetica;fontSize=12;fontColor=#005073;labelBackgroundColor=default;endArrow=none;endFill=0;strokeWidth=2;" parent="1" source="Db0PShTD42zC8VwYMhMY-87" target="moupQe_RvfFImWZh-29n-5" edge="1">
          <mxGeometry relative="1" as="geometry">
            <Array as="points">
              <mxPoint x="30" y="722" />
              <mxPoint x="30" y="817" />
            </Array>
          </mxGeometry>
        </mxCell>
        <mxCell id="moupQe_RvfFImWZh-29n-27" style="edgeStyle=orthogonalEdgeStyle;shape=connector;rounded=0;orthogonalLoop=1;jettySize=auto;html=1;exitX=0;exitY=0.8;exitDx=0;exitDy=0;exitPerimeter=0;entryX=1;entryY=0.8;entryDx=0;entryDy=0;entryPerimeter=0;strokeColor=#005073;align=center;verticalAlign=middle;fontFamily=Helvetica;fontSize=12;fontColor=#005073;labelBackgroundColor=default;endArrow=none;endFill=0;strokeWidth=2;" parent="1" source="Db0PShTD42zC8VwYMhMY-106" target="moupQe_RvfFImWZh-29n-5" edge="1">
          <mxGeometry relative="1" as="geometry">
            <Array as="points">
              <mxPoint x="20" y="915" />
              <mxPoint x="20" y="834" />
            </Array>
          </mxGeometry>
        </mxCell>
        <mxCell id="moupQe_RvfFImWZh-29n-28" style="edgeStyle=orthogonalEdgeStyle;shape=connector;rounded=0;orthogonalLoop=1;jettySize=auto;html=1;exitX=0;exitY=0.8;exitDx=0;exitDy=0;exitPerimeter=0;entryX=0.985;entryY=0.985;entryDx=0;entryDy=0;entryPerimeter=0;strokeColor=#005073;align=center;verticalAlign=middle;fontFamily=Helvetica;fontSize=12;fontColor=#005073;labelBackgroundColor=default;endArrow=none;endFill=0;strokeWidth=2;" parent="1" source="Db0PShTD42zC8VwYMhMY-134" target="moupQe_RvfFImWZh-29n-5" edge="1">
          <mxGeometry relative="1" as="geometry">
            <Array as="points">
              <mxPoint x="10" y="1101" />
              <mxPoint x="10" y="850" />
            </Array>
          </mxGeometry>
        </mxCell>
        <mxCell id="moupQe_RvfFImWZh-29n-29" value="G1/0/1" style="text;html=1;align=center;verticalAlign=middle;whiteSpace=wrap;rounded=0;fontFamily=Helvetica;fontSize=12;fontColor=#005073;fontStyle=1" parent="1" vertex="1">
          <mxGeometry x="249" y="98" width="60" height="30" as="geometry" />
        </mxCell>
        <mxCell id="moupQe_RvfFImWZh-29n-30" value="G1/0/2" style="text;html=1;align=center;verticalAlign=middle;whiteSpace=wrap;rounded=0;fontFamily=Helvetica;fontSize=12;fontColor=#005073;fontStyle=1" parent="1" vertex="1">
          <mxGeometry x="249" y="144" width="60" height="30" as="geometry" />
        </mxCell>
        <mxCell id="Jju4vfjA0cxFtH1xlusZ-2" value="&lt;b&gt;&lt;font color=&quot;#005073&quot;&gt;ISP_AN_BACK-UP&lt;/font&gt;&lt;/b&gt;" style="ellipse;shape=cloud;whiteSpace=wrap;html=1;strokeColor=#005073;" vertex="1" parent="1">
          <mxGeometry x="-237" y="153.5" width="150" height="97" as="geometry" />
        </mxCell>
        <mxCell id="Jju4vfjA0cxFtH1xlusZ-16" value="" style="shape=image;verticalLabelPosition=bottom;labelBackgroundColor=default;verticalAlign=top;aspect=fixed;imageAspect=0;image=data:image/svg+xml,PHN2ZyB4bWxucz0iaHR0cDovL3d3dy53My5vcmcvMjAwMC9zdmciIGhlaWdodD0iMTQ2IiB3aWR0aD0iMTc0IiB2aWV3Qm94PSIwIDAgMTc0IDE0NiIgdmVyc2lvbj0iMS4yIj4mI3hhOwk8dGl0bGU+RmlyZXdhbGwtc3ZnPC90aXRsZT4mI3hhOwk8ZGVmcz4mI3hhOwkJPGltYWdlIGhyZWY9ImRhdGE6aW1hZ2UvcG5nO2Jhc2U2NCxpVkJPUncwS0dnb0FBQUFOU1VoRVVnQUFBSzRBQUFDU0NBTUFBQURyYWdFS0FBQUFBWE5TUjBJQjJja3Nmd0FBQVk5UVRGUkYvLy8veXNyS29hR2hqWTJOZkh4OGRIUjBaMmRuVmxaV1hWMWRjbkp5WDE5ZlZWVlZaR1JrZlgxOWpvNk9vcUtpMGRIUjZPam9pb3FLVFUxTlJrWkdUMDlQa1pHUjhQRHc4L1B6bDVlWFNrcEtwcWFtK1BqNGVucDYrdnI2YTJ0clVFUkRlVHc0bURZdnJESXB0VEFtZ3pvMVpFQTl0VEFuZEQwNWF6ODhxeklwbHpZdmR6dzRUVVZFOVBUMGo0K1BURVZFbGpZdjJDa2QyaWtjYno0NmhEbzBkejA0MWlvZGp6Z3hTRVpGbkp5Y3FLaW9Za0EreGkwaXZpOGtYa0Uvd01EQVkwQSsxQ29lMFNzZldFSkJabVptL2YzOXE2dXJUMFJFeVN3aHZDOGt1Ym01Ym01dWxUY3doemswNU9Ua1IwZEhTVVZGMGlvZXl5d2dSMFpHOWZYMXhjWEZsell3ZGowNHJxNnV2NysvbGpjd21abVpsRGN3ZUR3NGpUZ3lXa0pCV1VKQllFRS9hVDg4VlVOQ1VrUkRWME5CaDRlSGJHeHNlM3Q3aFlXRmtEY3hqSXlNV2tKQW1wcWE3ZTN0MGlzZTd1N3V5QzBoK2ZuNVpFQStYVUUvWEZ4Y3RMUzAwU3Nla0pDUVhVSkFwak1ycHpNcVcwSkErL3Y3clRJcGNYRnhoSVNFZ1lHQm9LQ2d6YzNOSHlLNk1BQUFBSVYwVWs1VEFQLy8vLy8vLy8vLy8vLy8vLy8vLy85dy8vLy8vLzhBQVAvLy93RC9BUC8vLy8vLy8vLy8vLy8vLy8vLy93RC8vLy8vLy8vLy8vLy8vLy8vLy8vLy8vLy8vLy8vL3dELy8vLy8vLy8vLzdELy8vLy8vd0QvLy8vLy8vLy8vLy8vLy8vLy8vLy8vLy8vLy8vLy8vLy9JUDhRL3dELy8vLy8vLy8vLy8vL0FQLy8vLy8vLzg3WDVlVUFBQU02U1VSQlZIaWM3ZDFMU0ZSUkhNZngvMThhYzlLb0JERXcwa0xLd29nbzhERzVDUzBLUVZyMFVDb2k2SUZFTGxwRVVDM2N0aXdJZXRBcWVsQ1JsR1JhWVdoaWl5SUNLWk1vTFkzc01Va3ZLeWM3NTk3cDJPcmVNektuNDQzZkY3eHp4em4zK3VGeUdCZGV6ekNwV0VZZXlkZEh2QWFNcHhEemQ2L1gwOFFQL1RoR2lEL084S0ZhVGRqZXhQZWM3VXptSHhZNS9uRXF2M0llNVdZV2Y3T3IwU2lhMDBjdU56dnRpL3hHaHMvYzVTaFJackpuREw4anl2cnBNU0JWb0Y3TG5hRUZqMXp1NG42U1Y5aHY4ZzZMK1pNM21qU29XOHB6b3JreDd6R1RtSHZFdzd3T2h4dnBGdnNGL05YdnpOYTRST25jSmJhRnJZSTcrMzJZYUJFUCtaN1pJcGVtODBPaUpkek10T28rMFRJZTlEK3pUUzVsRDRoM2hxSkdwc3BPb3BJQmpUTmI1VktPbUxuaGwxekY3VlRHdlJvSDJPWG1jU3VsUm5qOWJWMUUvaTFEM1BJZW5aSGhKMFFqWE4xQ1ZOcXZNOTd1MWFVUG40aFdjdWxUemFsTEJUZXNjdVhrcmVCTlRmTFhtczc0aGRjTmNkZDA2WXdzYkNTYURHNUNnUnNQWEhCVjRJS3JBaGRjRmJqZ3FzQUZWd1V1dUNwd3dWV0JDNjRLWEhCVjRJNlBXM2xQWjN6eFZhS01zSjZpNUZsK2g5YkF5QldpdGUwNkk4c3VTKzdPUzNxQUNWR0lkMTIwYlVpZ2RWeDd3YlloZ1VMTzNNMHJzdTNRYUxnaHNYY0d5eVg2Um1ZNWNFMEdyc25BTlJtNEpnUFhaT0NhREZ5VGdXc3ljRTBHcnNuQU5SbTRKZ1BYWk9DYURGeVRnV3N5Y0UwR3JzbkFOUm00Smh2akJ1aVBySUc2UVNBbFdEY0lEQVhyQm9HTnp0eXR2cWt6MXZMTkxlVm5pV3FDYyt1US9MOWZjQk1MM0hqZ2dxc0NGMXdWdU9DcXdBVlhCUzY0S25EQlZZRUxyZ3BjY0ZYZ2dxc0M5Ny9uQm1iWlNuY2R5SnJtZ0N3S3lpK0lWbkJkYnp1VjViWnBqTGQ3ZFhOSDIyajVISGRCMncyZEdnZlk1UmFmRjEvWDJGMkxlY3NkL3dPc2NxYzhGcHY1ZDVuMkhwMUt0UFhCeEY2TWVkclMwMFRienZVeDBiNVQ0bmxXVll2ZklSYTVGUTF2U2E3RjdDd2t2ditFMk96Z0pwOWo3TDB6ck9aamN1aWd1Kzc1b2NQcDhwc1p6SnZQZUJ4a1o1bjJVZEZudWJQN1YvMmZSZkMzSDBteUl2bnRPUzRYN1k5ZnJaUk1xeGIvNmc0NkQ0SDRBQWN4SDZMdTNsOUc1dHJZU2Erak9CVDc5eCtQSWFqMUI5U3ozNU9wQWw2dlNWY0JBQUFBQUVsRlRrU3VRbUNDIiBpZD0iaW1nMSIgaGVpZ2h0PSIxNDYiIHdpZHRoPSIxNzQiLz4mI3hhOwkJPGltYWdlIGhyZWY9ImRhdGE6aW1hZ2Uvc3ZnK3htbDtiYXNlNjQsUEQ5NGJXd2dkbVZ5YzJsdmJqMGlNUzR3SWlCbGJtTnZaR2x1WnowaVZWUkdMVGdpUHo0OGMzWm5JR2xrUFNKc2IyZHZJaUI0Yld4dWN6MGlhSFIwY0RvdkwzZDNkeTUzTXk1dmNtY3ZNakF3TUM5emRtY2lJSFpwWlhkQ2IzZzlJakFnTUNBMU9EQXVOelVnTVRVNUxqazNJajQ4WkdWbWN6NDhjM1I1YkdVK0xtTnNjeTB4ZTJacGJHdzZibTl1WlR0OVBDOXpkSGxzWlQ0OEwyUmxabk0rUEhKbFkzUWdZMnhoYzNNOUltTnNjeTB4SWlCM2FXUjBhRDBpTlRnd0xqYzFJaUJvWldsbmFIUTlJakUxT1M0NU55SXZQanh3WVhSb0lHUTlJbTB6TWpVdU5qRXNOalF1TnpOMkxURXhMalF4YURFekxqQXlkalV6TGpNeWFDMHhNeTR3TW5ZdE5ERXVPVEZhYlMwMU55NDBOQzB4TVM0ME1XZzFNQzR5T1hZeE1TNDBOV2d0TWpNdU5UZDJOREV1T0Rkb0xURXpMakF5ZGkwME1TNDROMmd0TVRNdU56RjJMVEV4TGpRMVdtMHlOVGt1TXpnc01IWXhNUzQwTldndE1qTXVOVGQyTkRFdU9EZG9MVEV6TGpBeWRpMDBNUzQ0TjJndE1UTXVOekYyTFRFeExqUTFhRFV3TGpJNVdtMHRORGMwTGpJekxEQm9OVFl1TXpsMk1URXVORFZvTFRRekxqTTNkakV4TGpSb016WXVPVGwyTVRFdU5EVm9MVE0yTGprNWRqRTVMakF4YUMweE15NHdNbll0TlRNdU16SmFiVE0yTkM0ekxEQm9OVEl1TkRsMk1URXVORFZvTFRNNUxqUTNkamt1TkRob016SXVNemwyTVRFdU5EVm9MVE15TGpNNWRqa3VORGhvTkRBdU1UaDJNVEV1TkRWb0xUVXpMakoyTFRVekxqTXlXbTB0TVRBdU1EWXNNVFV1TURkMk16Z3VNalZvTFRFekxqQXlkaTB6T0M0eU5XTXdMVEl0TVM0Mk1pMHpMall4TFRNdU5qRXRNeTQyTVdndE1qa3VNakp6TUN3ME1TNDROaXd3TERReExqZzJhQzB4TXk0d01uWXROVE11TXpKb05ETXVPR000TGpNeUxEQXNNVFV1TURjc05pNDNOU3d4TlM0d055d3hOUzR3TjFwdExURTFPUzQwTXkweE5TNHdOMmd0TkRRdU5USnpNQ3cxTXk0ek1pd3dMRFV6TGpNeWFERXpMakF5ZGkweE9TNHdNMmd5T1M0ell6RXVOVGN1TURVc01pNDRNeXd4TGpNMExESXVPRE1zTWk0NU0zWXhOaTR4TVdneE15NHdNbll0TVRZdU1qVmpNQzB5TGpnMUxURXVOVFl0TlM0ek15MHpMamc0TFRZdU5qUXNNaTQ0TWkweUxqWXlMRFF1TlRrdE5pNHpOaXcwTGpVNUxURXdMalV4ZGkwMUxqVTJZekF0Tnk0NU15MDJMalF6TFRFMExqTTFMVEUwTGpNMUxURTBMak0xV20weExqTTBMREU1TGpnNVl6QXNNUzQyTXkweExqTXlMREl1T1RVdE1pNDVOU3d5TGprMWFDMHlPUzQ0T1hZdE1URXVNemxzTWprdU9Ea3RMakF6WXpFdU5qTXNNQ3d5TGprMUxERXVNeklzTWk0NU5Td3lMamsxZGpVdU5UUmFJaTgrUEhCaGRHZ2daRDBpYlRFNU15NDFOaXczTXk0d04zWXhNeTQ0TkdndE1qRXVOVE4yTFRFekxqZzBhREl4TGpVeldtMHRORGd1T1RZc016TXVOVGhvTUhNeU1TNDFNeXd3TERJeExqVXpMREJvTUhZdE1UTXVPRFJvTFRJeExqVXpkakV6TGpneldtMDBPQzQ1TlMwME1TNDNNMk13TFRZdU5DMDFMakU1TFRFeExqWXRNVEV1TmkweE1TNDJhQzA1TGpremRqRXpMamcwYURJeExqVXlkaTB5TGpJMFdtMHRORGd1T1RVdE1URXVOVGwyTVRNdU9EUm9NakV1TlROMkxURXpMamcwYURCekxUSXhMalV6TERBdE1qRXVOVE1zTUdnd1dtMHRNamN1TkRNc01Ua3VOelJvTUhZeE15NDROR2d5TVM0MU0zWXRNVE11T0RSb0xUSXhMalV6V20wMU5DNDROaXd6TXk0MU9HZzVMamt6WXpZdU5Dd3dMREV4TGpZdE5TNHhPU3d4TVM0MkxURXhMaloyTFRJdU1qUm9MVEl4TGpVeWRqRXpMamcwV20wdE5UUXVPRFl0TVRFdU5tTXdMRFl1TkN3MUxqRTVMREV4TGpZc01URXVOaXd4TVM0MmFEa3VPVE56TUMweE15NDRNeXd3TFRFekxqZ3phQzB5TVM0MU0zWXlMakkwV20wd0xUTXdMakV6ZGpJdU1qUm9NakV1TlROMkxURXpMamcwYUMwNUxqa3pZeTAyTGpRc01DMHhNUzQyTERVdU1Ua3RNVEV1Tml3eE1TNDJXaUl2UGp3dmMzWm5QZz09IiBpZD0iaW1nMiIgaGVpZ2h0PSIxNjAiIHdpZHRoPSI1ODEiLz4mI3hhOwk8L2RlZnM+JiN4YTsJPHN0eWxlPiYjeGE7CTwvc3R5bGU+JiN4YTsJPHVzZSB5PSIwIiB4PSIwIiBocmVmPSIjaW1nMSIgaWQ9IkJhY2tncm91bmQiLz4mI3hhOwk8dXNlIHRyYW5zZm9ybT0ibWF0cml4KC4zMywwLDAsLjMzLC05LDQ3KSIgaHJlZj0iI2ltZzIiIGlkPSJGb3J0aW5ldC1sb2dvLXJnYi1ibGFjayIvPiYjeGE7PC9zdmc+;points=[[0,0,0,0,0],[0,0.4,0,0,0],[0,0.6,0,0,0],[0,1,0,0,0],[0.25,0,0,0,0],[0.25,1,0,0,0],[0.5,0,0,0,0],[0.5,1,0,0,0],[0.75,0,0,0,0],[0.75,1,0,0,0],[1,0,0,0,0],[1,0.25,0,0,0],[1,0.5,0,0,0],[1,0.75,0,0,0],[1,1,0,0,0]];" vertex="1" parent="1">
          <mxGeometry x="-420" y="311" width="117.99" height="99" as="geometry" />
        </mxCell>
        <mxCell id="Jju4vfjA0cxFtH1xlusZ-17" value="" style="shape=image;verticalLabelPosition=bottom;labelBackgroundColor=default;verticalAlign=top;aspect=fixed;imageAspect=0;image=data:image/svg+xml,PHN2ZyB4bWxucz0iaHR0cDovL3d3dy53My5vcmcvMjAwMC9zdmciIGhlaWdodD0iMTQ2IiB3aWR0aD0iMTc0IiB2aWV3Qm94PSIwIDAgMTc0IDE0NiIgdmVyc2lvbj0iMS4yIj4mI3hhOwk8dGl0bGU+RmlyZXdhbGwtc3ZnPC90aXRsZT4mI3hhOwk8ZGVmcz4mI3hhOwkJPGltYWdlIGhyZWY9ImRhdGE6aW1hZ2UvcG5nO2Jhc2U2NCxpVkJPUncwS0dnb0FBQUFOU1VoRVVnQUFBSzRBQUFDU0NBTUFBQURyYWdFS0FBQUFBWE5TUjBJQjJja3Nmd0FBQVk5UVRGUkYvLy8veXNyS29hR2hqWTJOZkh4OGRIUjBaMmRuVmxaV1hWMWRjbkp5WDE5ZlZWVlZaR1JrZlgxOWpvNk9vcUtpMGRIUjZPam9pb3FLVFUxTlJrWkdUMDlQa1pHUjhQRHc4L1B6bDVlWFNrcEtwcWFtK1BqNGVucDYrdnI2YTJ0clVFUkRlVHc0bURZdnJESXB0VEFtZ3pvMVpFQTl0VEFuZEQwNWF6ODhxeklwbHpZdmR6dzRUVVZFOVBUMGo0K1BURVZFbGpZdjJDa2QyaWtjYno0NmhEbzBkejA0MWlvZGp6Z3hTRVpGbkp5Y3FLaW9Za0EreGkwaXZpOGtYa0Uvd01EQVkwQSsxQ29lMFNzZldFSkJabVptL2YzOXE2dXJUMFJFeVN3aHZDOGt1Ym01Ym01dWxUY3doemswNU9Ua1IwZEhTVVZGMGlvZXl5d2dSMFpHOWZYMXhjWEZsell3ZGowNHJxNnV2NysvbGpjd21abVpsRGN3ZUR3NGpUZ3lXa0pCV1VKQllFRS9hVDg4VlVOQ1VrUkRWME5CaDRlSGJHeHNlM3Q3aFlXRmtEY3hqSXlNV2tKQW1wcWE3ZTN0MGlzZTd1N3V5QzBoK2ZuNVpFQStYVUUvWEZ4Y3RMUzAwU3Nla0pDUVhVSkFwak1ycHpNcVcwSkErL3Y3clRJcGNYRnhoSVNFZ1lHQm9LQ2d6YzNOSHlLNk1BQUFBSVYwVWs1VEFQLy8vLy8vLy8vLy8vLy8vLy8vLy85dy8vLy8vLzhBQVAvLy93RC9BUC8vLy8vLy8vLy8vLy8vLy8vLy93RC8vLy8vLy8vLy8vLy8vLy8vLy8vLy8vLy8vLy8vL3dELy8vLy8vLy8vLzdELy8vLy8vd0QvLy8vLy8vLy8vLy8vLy8vLy8vLy8vLy8vLy8vLy8vLy9JUDhRL3dELy8vLy8vLy8vLy8vL0FQLy8vLy8vLzg3WDVlVUFBQU02U1VSQlZIaWM3ZDFMU0ZSUkhNZngvMThhYzlLb0JERXcwa0xLd29nbzhERzVDUzBLUVZyMFVDb2k2SUZFTGxwRVVDM2N0aXdJZXRBcWVsQ1JsR1JhWVdoaWl5SUNLWk1vTFkzc01Va3ZLeWM3NTk3cDJPcmVNektuNDQzZkY3eHp4em4zK3VGeUdCZGV6ekNwV0VZZXlkZEh2QWFNcHhEemQ2L1gwOFFQL1RoR2lEL084S0ZhVGRqZXhQZWM3VXptSHhZNS9uRXF2M0llNVdZV2Y3T3IwU2lhMDBjdU56dnRpL3hHaHMvYzVTaFJackpuREw4anl2cnBNU0JWb0Y3TG5hRUZqMXp1NG42U1Y5aHY4ZzZMK1pNM21qU29XOHB6b3JreDd6R1RtSHZFdzd3T2h4dnBGdnNGL05YdnpOYTRST25jSmJhRnJZSTcrMzJZYUJFUCtaN1pJcGVtODBPaUpkek10T28rMFRJZTlEK3pUUzVsRDRoM2hxSkdwc3BPb3BJQmpUTmI1VktPbUxuaGwxekY3VlRHdlJvSDJPWG1jU3VsUm5qOWJWMUUvaTFEM1BJZW5aSGhKMFFqWE4xQ1ZOcXZNOTd1MWFVUG40aFdjdWxUemFsTEJUZXNjdVhrcmVCTlRmTFhtczc0aGRjTmNkZDA2WXdzYkNTYURHNUNnUnNQWEhCVjRJS3JBaGRjRmJqZ3FzQUZWd1V1dUNwd3dWV0JDNjRLWEhCVjRJNlBXM2xQWjN6eFZhS01zSjZpNUZsK2g5YkF5QldpdGUwNkk4c3VTKzdPUzNxQUNWR0lkMTIwYlVpZ2RWeDd3YlloZ1VMTzNNMHJzdTNRYUxnaHNYY0d5eVg2Um1ZNWNFMEdyc25BTlJtNEpnUFhaT0NhREZ5VGdXc3ljRTBHcnNuQU5SbTRKZ1BYWk9DYURGeVRnV3N5Y0UwR3JzbkFOUm00Smh2akJ1aVBySUc2UVNBbFdEY0lEQVhyQm9HTnp0eXR2cWt6MXZMTkxlVm5pV3FDYyt1US9MOWZjQk1MM0hqZ2dxc0NGMXdWdU9DcXdBVlhCUzY0S25EQlZZRUxyZ3BjY0ZYZ2dxc0M5Ny9uQm1iWlNuY2R5SnJtZ0N3S3lpK0lWbkJkYnp1VjViWnBqTGQ3ZFhOSDIyajVISGRCMncyZEdnZlk1UmFmRjEvWDJGMkxlY3NkL3dPc2NxYzhGcHY1ZDVuMkhwMUt0UFhCeEY2TWVkclMwMFRienZVeDBiNVQ0bmxXVll2ZklSYTVGUTF2U2E3RjdDd2t2ditFMk96Z0pwOWo3TDB6ck9aamN1aWd1Kzc1b2NQcDhwc1p6SnZQZUJ4a1o1bjJVZEZudWJQN1YvMmZSZkMzSDBteUl2bnRPUzRYN1k5ZnJaUk1xeGIvNmc0NkQ0SDRBQWN4SDZMdTNsOUc1dHJZU2Erak9CVDc5eCtQSWFqMUI5U3ozNU9wQWw2dlNWY0JBQUFBQUVsRlRrU3VRbUNDIiBpZD0iaW1nMSIgaGVpZ2h0PSIxNDYiIHdpZHRoPSIxNzQiLz4mI3hhOwkJPGltYWdlIGhyZWY9ImRhdGE6aW1hZ2Uvc3ZnK3htbDtiYXNlNjQsUEQ5NGJXd2dkbVZ5YzJsdmJqMGlNUzR3SWlCbGJtTnZaR2x1WnowaVZWUkdMVGdpUHo0OGMzWm5JR2xrUFNKc2IyZHZJaUI0Yld4dWN6MGlhSFIwY0RvdkwzZDNkeTUzTXk1dmNtY3ZNakF3TUM5emRtY2lJSFpwWlhkQ2IzZzlJakFnTUNBMU9EQXVOelVnTVRVNUxqazNJajQ4WkdWbWN6NDhjM1I1YkdVK0xtTnNjeTB4ZTJacGJHdzZibTl1WlR0OVBDOXpkSGxzWlQ0OEwyUmxabk0rUEhKbFkzUWdZMnhoYzNNOUltTnNjeTB4SWlCM2FXUjBhRDBpTlRnd0xqYzFJaUJvWldsbmFIUTlJakUxT1M0NU55SXZQanh3WVhSb0lHUTlJbTB6TWpVdU5qRXNOalF1TnpOMkxURXhMalF4YURFekxqQXlkalV6TGpNeWFDMHhNeTR3TW5ZdE5ERXVPVEZhYlMwMU55NDBOQzB4TVM0ME1XZzFNQzR5T1hZeE1TNDBOV2d0TWpNdU5UZDJOREV1T0Rkb0xURXpMakF5ZGkwME1TNDROMmd0TVRNdU56RjJMVEV4TGpRMVdtMHlOVGt1TXpnc01IWXhNUzQwTldndE1qTXVOVGQyTkRFdU9EZG9MVEV6TGpBeWRpMDBNUzQ0TjJndE1UTXVOekYyTFRFeExqUTFhRFV3TGpJNVdtMHRORGMwTGpJekxEQm9OVFl1TXpsMk1URXVORFZvTFRRekxqTTNkakV4TGpSb016WXVPVGwyTVRFdU5EVm9MVE0yTGprNWRqRTVMakF4YUMweE15NHdNbll0TlRNdU16SmFiVE0yTkM0ekxEQm9OVEl1TkRsMk1URXVORFZvTFRNNUxqUTNkamt1TkRob016SXVNemwyTVRFdU5EVm9MVE15TGpNNWRqa3VORGhvTkRBdU1UaDJNVEV1TkRWb0xUVXpMakoyTFRVekxqTXlXbTB0TVRBdU1EWXNNVFV1TURkMk16Z3VNalZvTFRFekxqQXlkaTB6T0M0eU5XTXdMVEl0TVM0Mk1pMHpMall4TFRNdU5qRXRNeTQyTVdndE1qa3VNakp6TUN3ME1TNDROaXd3TERReExqZzJhQzB4TXk0d01uWXROVE11TXpKb05ETXVPR000TGpNeUxEQXNNVFV1TURjc05pNDNOU3d4TlM0d055d3hOUzR3TjFwdExURTFPUzQwTXkweE5TNHdOMmd0TkRRdU5USnpNQ3cxTXk0ek1pd3dMRFV6TGpNeWFERXpMakF5ZGkweE9TNHdNMmd5T1M0ell6RXVOVGN1TURVc01pNDRNeXd4TGpNMExESXVPRE1zTWk0NU0zWXhOaTR4TVdneE15NHdNbll0TVRZdU1qVmpNQzB5TGpnMUxURXVOVFl0TlM0ek15MHpMamc0TFRZdU5qUXNNaTQ0TWkweUxqWXlMRFF1TlRrdE5pNHpOaXcwTGpVNUxURXdMalV4ZGkwMUxqVTJZekF0Tnk0NU15MDJMalF6TFRFMExqTTFMVEUwTGpNMUxURTBMak0xV20weExqTTBMREU1TGpnNVl6QXNNUzQyTXkweExqTXlMREl1T1RVdE1pNDVOU3d5TGprMWFDMHlPUzQ0T1hZdE1URXVNemxzTWprdU9Ea3RMakF6WXpFdU5qTXNNQ3d5TGprMUxERXVNeklzTWk0NU5Td3lMamsxZGpVdU5UUmFJaTgrUEhCaGRHZ2daRDBpYlRFNU15NDFOaXczTXk0d04zWXhNeTQ0TkdndE1qRXVOVE4yTFRFekxqZzBhREl4TGpVeldtMHRORGd1T1RZc016TXVOVGhvTUhNeU1TNDFNeXd3TERJeExqVXpMREJvTUhZdE1UTXVPRFJvTFRJeExqVXpkakV6TGpneldtMDBPQzQ1TlMwME1TNDNNMk13TFRZdU5DMDFMakU1TFRFeExqWXRNVEV1TmkweE1TNDJhQzA1TGpremRqRXpMamcwYURJeExqVXlkaTB5TGpJMFdtMHRORGd1T1RVdE1URXVOVGwyTVRNdU9EUm9NakV1TlROMkxURXpMamcwYURCekxUSXhMalV6TERBdE1qRXVOVE1zTUdnd1dtMHRNamN1TkRNc01Ua3VOelJvTUhZeE15NDROR2d5TVM0MU0zWXRNVE11T0RSb0xUSXhMalV6V20wMU5DNDROaXd6TXk0MU9HZzVMamt6WXpZdU5Dd3dMREV4TGpZdE5TNHhPU3d4TVM0MkxURXhMaloyTFRJdU1qUm9MVEl4TGpVeWRqRXpMamcwV20wdE5UUXVPRFl0TVRFdU5tTXdMRFl1TkN3MUxqRTVMREV4TGpZc01URXVOaXd4TVM0MmFEa3VPVE56TUMweE15NDRNeXd3TFRFekxqZ3phQzB5TVM0MU0zWXlMakkwV20wd0xUTXdMakV6ZGpJdU1qUm9NakV1TlROMkxURXpMamcwYUMwNUxqa3pZeTAyTGpRc01DMHhNUzQyTERVdU1Ua3RNVEV1Tml3eE1TNDJXaUl2UGp3dmMzWm5QZz09IiBpZD0iaW1nMiIgaGVpZ2h0PSIxNjAiIHdpZHRoPSI1ODEiLz4mI3hhOwk8L2RlZnM+JiN4YTsJPHN0eWxlPiYjeGE7CTwvc3R5bGU+JiN4YTsJPHVzZSB5PSIwIiB4PSIwIiBocmVmPSIjaW1nMSIgaWQ9IkJhY2tncm91bmQiLz4mI3hhOwk8dXNlIHRyYW5zZm9ybT0ibWF0cml4KC4zMywwLDAsLjMzLC05LDQ3KSIgaHJlZj0iI2ltZzIiIGlkPSJGb3J0aW5ldC1sb2dvLXJnYi1ibGFjayIvPiYjeGE7PC9zdmc+;points=[[0,0,0,0,0],[0,0.25,0,0,0],[0,0.5,0,0,0],[0,0.75,0,0,0],[0,1,0,0,0],[0.25,0,0,0,0],[0.25,1,0,0,0],[0.5,0,0,0,0],[0.5,1,0,0,0],[0.75,0,0,0,0],[0.75,1,0,0,0],[1,0,0,0,0],[1,0.4,0,0,0],[1,0.6,0,0,0],[1,1,0,0,0]];" vertex="1" parent="1">
          <mxGeometry x="-670" y="311" width="117.99" height="99" as="geometry" />
        </mxCell>
        <mxCell id="Jju4vfjA0cxFtH1xlusZ-21" style="edgeStyle=orthogonalEdgeStyle;shape=connector;rounded=0;orthogonalLoop=1;jettySize=auto;html=1;exitX=1;exitY=0.4;exitDx=0;exitDy=0;exitPerimeter=0;entryX=0;entryY=0.4;entryDx=0;entryDy=0;entryPerimeter=0;strokeColor=#005073;strokeWidth=2;align=center;verticalAlign=middle;fontFamily=Helvetica;fontSize=12;fontColor=#005073;labelBackgroundColor=default;endArrow=none;endFill=0;" edge="1" parent="1" source="Jju4vfjA0cxFtH1xlusZ-17" target="Jju4vfjA0cxFtH1xlusZ-16">
          <mxGeometry relative="1" as="geometry" />
        </mxCell>
        <mxCell id="Jju4vfjA0cxFtH1xlusZ-22" style="edgeStyle=orthogonalEdgeStyle;shape=connector;rounded=0;orthogonalLoop=1;jettySize=auto;html=1;exitX=1;exitY=0.6;exitDx=0;exitDy=0;exitPerimeter=0;entryX=0;entryY=0.6;entryDx=0;entryDy=0;entryPerimeter=0;strokeColor=#005073;strokeWidth=2;align=center;verticalAlign=middle;fontFamily=Helvetica;fontSize=12;fontColor=#005073;labelBackgroundColor=default;endArrow=none;endFill=0;" edge="1" parent="1" source="Jju4vfjA0cxFtH1xlusZ-17" target="Jju4vfjA0cxFtH1xlusZ-16">
          <mxGeometry relative="1" as="geometry" />
        </mxCell>
        <mxCell id="Jju4vfjA0cxFtH1xlusZ-23" value="" style="ellipse;whiteSpace=wrap;html=1;fontFamily=Helvetica;fontSize=12;fontColor=#005073;labelBackgroundColor=default;strokeColor=#005073;fillColor=none;" vertex="1" parent="1">
          <mxGeometry x="-500" y="335" width="20" height="50" as="geometry" />
        </mxCell>
        <mxCell id="Jju4vfjA0cxFtH1xlusZ-26" value="&lt;b&gt;&lt;font color=&quot;#005073&quot;&gt;ISP_AN_MAIN&lt;/font&gt;&lt;/b&gt;" style="ellipse;shape=cloud;whiteSpace=wrap;html=1;strokeColor=#005073;" vertex="1" parent="1">
          <mxGeometry x="-443" y="150" width="150" height="97" as="geometry" />
        </mxCell>
        <mxCell id="Jju4vfjA0cxFtH1xlusZ-27" value="" style="sketch=0;points=[[0.015,0.015,0],[0.985,0.015,0],[0.985,0.985,0],[0.015,0.985,0],[0.25,0,0],[0.5,0,0],[0.75,0,0],[1,0.25,0],[1,0.5,0],[1,0.75,0],[0.75,1,0],[0.5,1,0],[0.25,1,0],[0,0.75,0],[0,0.5,0],[0,0.25,0]];verticalLabelPosition=bottom;html=1;verticalAlign=top;aspect=fixed;align=center;pointerEvents=1;shape=mxgraph.cisco19.server;fillColor=#005073;strokeColor=none;fontFamily=Helvetica;fontSize=12;fontColor=#005073;labelBackgroundColor=default;" vertex="1" parent="1">
          <mxGeometry x="-660" y="716" width="90.2" height="164" as="geometry" />
        </mxCell>
        <mxCell id="Jju4vfjA0cxFtH1xlusZ-28" value="" style="sketch=0;points=[[0.015,0.015,0],[0.985,0.015,0],[0.985,0.985,0],[0.015,0.985,0],[0.25,0,0],[0.5,0,0],[0.75,0,0],[1,0.25,0],[1,0.5,0],[1,0.75,0],[0.75,1,0],[0.5,1,0],[0.25,1,0],[0,0.75,0],[0,0.5,0],[0,0.25,0]];verticalLabelPosition=bottom;html=1;verticalAlign=top;aspect=fixed;align=center;pointerEvents=1;shape=mxgraph.cisco19.dns_server;fillColor=#005073;strokeColor=none;fontFamily=Helvetica;fontSize=12;fontColor=#005073;labelBackgroundColor=default;" vertex="1" parent="1">
          <mxGeometry x="-775" y="715.1400000000001" width="90" height="163.64" as="geometry" />
        </mxCell>
        <mxCell id="Jju4vfjA0cxFtH1xlusZ-30" value="&lt;span style=&quot;font-size: 11px;&quot;&gt;&lt;b&gt;SRV_AN_DNS_1&lt;/b&gt;&lt;/span&gt;" style="text;html=1;align=center;verticalAlign=middle;whiteSpace=wrap;rounded=0;fontColor=#005073;" vertex="1" parent="1">
          <mxGeometry x="-790" y="691.21" width="120" height="30" as="geometry" />
        </mxCell>
        <mxCell id="Jju4vfjA0cxFtH1xlusZ-31" value="" style="sketch=0;points=[[0.015,0.015,0],[0.985,0.015,0],[0.985,0.985,0],[0.015,0.985,0],[0.25,0,0],[0.5,0,0],[0.75,0,0],[1,0.25,0],[1,0.5,0],[1,0.75,0],[0.75,1,0],[0.5,1,0],[0.25,1,0],[0,0.75,0],[0,0.5,0],[0,0.25,0]];verticalLabelPosition=bottom;html=1;verticalAlign=top;aspect=fixed;align=center;pointerEvents=1;shape=mxgraph.cisco19.server;fillColor=#005073;strokeColor=none;fontFamily=Helvetica;fontSize=12;fontColor=#005073;labelBackgroundColor=default;" vertex="1" parent="1">
          <mxGeometry x="-550" y="716" width="90.2" height="164" as="geometry" />
        </mxCell>
        <mxCell id="Jju4vfjA0cxFtH1xlusZ-35" value="" style="ellipse;whiteSpace=wrap;html=1;fontFamily=Helvetica;fontSize=12;fontColor=#005073;labelBackgroundColor=default;strokeColor=#005073;fillColor=none;" vertex="1" parent="1">
          <mxGeometry x="-140" y="607" width="30" height="10" as="geometry" />
        </mxCell>
        <mxCell id="Jju4vfjA0cxFtH1xlusZ-42" style="edgeStyle=orthogonalEdgeStyle;shape=connector;rounded=0;orthogonalLoop=1;jettySize=auto;html=1;exitX=0;exitY=0.8;exitDx=0;exitDy=0;exitPerimeter=0;entryX=0;entryY=0.2;entryDx=0;entryDy=0;entryPerimeter=0;strokeColor=#005073;strokeWidth=1;align=center;verticalAlign=middle;fontFamily=Helvetica;fontSize=12;fontColor=#005073;labelBackgroundColor=default;endArrow=none;endFill=0;" edge="1" parent="1" source="moupQe_RvfFImWZh-29n-1" target="moupQe_RvfFImWZh-29n-5">
          <mxGeometry relative="1" as="geometry" />
        </mxCell>
      </root>
    </mxGraphModel>
  </diagram>
</mxfile>
